<?xml version="1.0" encoding="UTF-8" standalone="no"?>
<!-- Created with Inkscape (http://www.inkscape.org/) -->

<svg
   version="1.1"
   id="svg2"
   width="5333.3335"
   height="5333.3335"
   viewBox="0 0 5333.3335 5333.3335"
   sodipodi:docname="cat.eps"
   xmlns:inkscape="http://www.inkscape.org/namespaces/inkscape"
   xmlns:sodipodi="http://sodipodi.sourceforge.net/DTD/sodipodi-0.dtd"
   xmlns="http://www.w3.org/2000/svg"
   xmlns:svg="http://www.w3.org/2000/svg">
  <defs
     id="defs6" />
  <sodipodi:namedview
     id="namedview4"
     pagecolor="#ffffff"
     bordercolor="#000000"
     borderopacity="0.25"
     inkscape:showpageshadow="2"
     inkscape:pageopacity="0.0"
     inkscape:pagecheckerboard="0"
     inkscape:deskcolor="#d1d1d1" />
  <g
     id="g8"
     inkscape:groupmode="layer"
     inkscape:label="ink_ext_XXXXXX"
     transform="matrix(1.3333333,0,0,-1.3333333,0,5333.3333)">
    <g
       id="g10"
       transform="scale(0.1)">
      <path
         d="M 0,0 H 40000 V 40000 H 0 Z"
         style="fill:#ffffff;fill-opacity:1;fill-rule:nonzero;stroke:none"
         id="path12" />
      <path
         d="m 33400,20250 c 0,-7400.6 -5999.4,-13400 -13400,-13400 -7400.6,0 -13400,5999.4 -13400,13400 0,7400.6 5999.4,13400 13400,13400 7400.6,0 13400,-5999.4 13400,-13400"
         style="fill:#02daff;fill-opacity:1;fill-rule:nonzero;stroke:none"
         id="path14" />
      <path
         d="m 22403.9,6851.6 c -567.4,19 -1133.4,223.3 -1641,651.3 h -1777.8 c -438.4,-369.6 -920.4,-572.6 -1409,-633.2 -2198.8,-273.4 -4535.2,2329.5 -3669.7,5594.2 90,339.7 214.2,686.3 377.3,1037.7 h 11180.6 c 197.7,-426.2 338.8,-846 430.1,-1254.1 683.3,-3049.1 -1412.5,-5466 -3490.5,-5395.9"
         style="fill:#a9b0bb;fill-opacity:1;fill-rule:nonzero;stroke:none"
         id="path16" />
      <path
         d="m 22500.3,6999.8 c -525.4,0 -1038.4,167.7 -1493.2,503.1 h 594.4 c 143,0 277.8,35.6 395.8,98.5 155.9,83 282.7,213.5 361,372.2 0,0.1 0.1,0.1 0.1,0.2 0.1,0.2 0.2,0.3 0.2,0.5 27,54.8 48.2,112.9 62.9,173.7 23.5,-0.6 47.1,-1 70.5,-1 1460.5,0 2910.4,1215.4 3377.8,3002.8 16.9,-1540.8 -691,-2810.2 -1600.8,-3505.5 -562.1,-429.5 -1173.4,-644.5 -1768.7,-644.5 m -5252.8,0 c -595.2,0 -1206.7,215 -1768.7,644.5 -909.8,695.2 -1617.6,1964.3 -1600.8,3505 468.1,-1787 1917.6,-3002.4 3377.8,-3002.4 13.8,0 27.6,0.1 41.4,0.4 13.4,-55.4 32.3,-108.6 56.1,-159.1 0,-0.2 0.1,-0.4 0.2,-0.6 0,0 0,-0.1 0.1,-0.1 80.4,-170.7 216.3,-310.1 384.5,-394.9 113.9,-57.4 242.7,-89.7 378.9,-89.7 h 623.7 c -454.9,-335.5 -967.8,-503.1 -1493.2,-503.1"
         style="fill:#767ba5;fill-opacity:1;fill-rule:nonzero;stroke:none"
         id="path18" />
      <path
         d="m 23725.5,10185.5 c -217.7,-222.5 -529.3,-355.3 -985.4,-351 -271.3,2.6 -532.3,93.5 -760.8,239.3 -677.2,432.8 -1205.2,-496.8 -489.4,-839.9 L 20872.3,7415 c -36.7,28.1 -73.1,57.6 -109.4,87.9 h -1777.8 c -36.3,-30.8 -73.1,-60.2 -109.9,-88.3 h -37.6 l -579.5,1819.3 c 715.8,343.1 187.4,1272.7 -489.4,839.9 -228.5,-145.8 -489.5,-236.7 -760.8,-239.3 -306.4,-3 -547.9,56.3 -739.1,162.7 12.9,1505.6 778,2815.1 1905.8,3504.4 539.6,330.6 1162.4,518.9 1825.3,518.9 663,0 1285.7,-188.3 1825.4,-518.9 1080.5,-660.3 1828.3,-1890.2 1900.2,-3316.1"
         style="fill:#e6eaed;fill-opacity:1;fill-rule:nonzero;stroke:none"
         id="path20" />
      <path
         d="m 21489.9,9233.9 -98.2,-290 c -240.2,160.1 -286.1,400.3 -209.5,592 46.7,-116 145,-224.1 307.7,-302"
         style="fill:#ffffff;fill-opacity:1;fill-rule:nonzero;stroke:none"
         id="path22" />
      <path
         d="m 16985.6,9488.2 c -295.9,0 -530.2,59 -716.8,162.8 -451.8,207.7 -722.7,733.1 -733.5,1466.6 0,0 199.4,-871.5 742.5,-1212.1 2.2,28 4.4,55.6 6.5,83.2 125,-66.9 270.9,-114.1 441.8,-137.5 80.6,-11.1 166.8,-16.8 259,-16.8 7.5,0 15.1,0 22.8,0.1 271.3,2.6 532.3,93.5 760.8,239.3 v 0 c 1.9,1.2 3.8,2.4 5.7,3.6 0,0.1 0,0.1 0.1,0.1 v 0 c 1.8,1.1 3.5,2.2 5.2,3.3 119.7,74.1 234.5,105.7 338.4,105.7 181.8,0 330.1,-96.9 412.1,-232.5 73.7,-122.2 93.5,-275.7 35.6,-418.1 -68.5,171.9 -235.3,304.4 -447.8,304.4 -107.1,0 -225.7,-33.5 -349.3,-112.7 -228.5,-145.8 -489.5,-236.7 -760.8,-239.3 -7.5,-0.1 -14.9,-0.1 -22.3,-0.1"
         style="fill:#dddfe4;fill-opacity:1;fill-rule:nonzero;stroke:none"
         id="path24" />
      <path
         d="m 16726.1,9851.2 c -170.9,23.4 -316.8,70.6 -441.8,137.5 0,0.1 0,0.2 0,0.3 124.9,-67 270.9,-114.3 441.8,-137.8 m 1804.1,102.8 c -82,135.6 -230.3,232.5 -412.1,232.5 -103.9,0 -218.7,-31.6 -338.4,-105.7 119.7,74.1 234.6,105.7 338.5,105.7 181.9,0 330.1,-96.9 412,-232.5 m -761.5,119.8 c 1.9,1.2 3.8,2.4 5.7,3.6 -1.9,-1.2 -3.8,-2.4 -5.7,-3.6 m 5.8,3.7 v 0 0"
         style="fill:#f5f7f8;fill-opacity:1;fill-rule:nonzero;stroke:none"
         id="path26" />
      <path
         d="m 22761.6,9488.2 c -7.1,0 -14.3,0 -21.5,0.1 -271.3,2.6 -532.3,93.5 -760.8,239.3 -123.7,79.1 -242.5,112.7 -349.6,112.7 -132,0 -246.2,-51 -330.2,-130.9 0.6,115 65.1,225 166.9,283.2 49.8,28.4 104.8,42.6 163,42.6 84.6,0 175.9,-29.9 268.2,-88.9 265.5,-169.6 556.3,-260.6 840.9,-263.3 7.3,-0.1 14.5,-0.1 21.7,-0.1 733.5,0 1118.6,337.5 1335,769.5 -133.8,-390.6 -369.7,-613.1 -369.7,-613.1 -214.3,-218.9 -519.5,-351.1 -963.9,-351.1"
         style="fill:#dddfe4;fill-opacity:1;fill-rule:nonzero;stroke:none"
         id="path28" />
      <path
         d="m 17255.3,6698.6 c -30.2,0 -60.3,0.5 -90.6,1.4 -648.6,21.2 -1295.2,264.5 -1869.8,703.6 -783.9,599 -1349.4,1495.9 -1592.3,2525.3 -274.2,1162.1 -120.8,2419.5 443.7,3636.5 35.2,75.9 125.3,108.8 201.2,73.6 75.9,-35.2 108.8,-125.2 73.6,-201.1 -1173,-2528.8 -274,-4775.9 1057.7,-5793.6 1112.3,-850 2418.4,-859.8 3408.7,-25.6 64,53.8 159.6,45.8 213.5,-18.3 53.8,-63.9 45.7,-159.5 -18.3,-213.4 -536,-451.4 -1166.1,-688.4 -1827.4,-688.4"
         style="fill:#000072;fill-opacity:1;fill-rule:nonzero;stroke:none"
         id="path30" />
      <path
         d="m 23587.8,11078.1 c -97.9,372.7 -243.5,723.4 -429.2,1044 850.1,232.2 1629.5,562.3 2311.5,982.4 128.8,-324.5 224,-643.6 289.1,-955.2 -440.3,-310.9 -927.4,-579.2 -1453.7,-802.5 -22.1,30.1 -55.4,52.1 -95,59.2 -9.2,1.7 -18.4,2.5 -27.4,2.5 -71.8,0 -135.4,-51.5 -148.6,-124.6 -3.1,-17 -6.2,-33.8 -9.4,-50.4 -143.1,-55 -288.9,-106.8 -437.3,-155.4 m -7169.4,23.5 c -613.7,206.4 -1182.7,468.6 -1698,783.3 l -0.4,0.8 c -239.8,146.3 -467.9,304.3 -683.3,473.3 74.7,298.8 177.1,603.8 310.5,913.5 724,-489.1 1571.2,-870 2505,-1131.9 -186.9,-318.8 -334,-667.9 -433.8,-1039"
         style="fill:#767ba5;fill-opacity:1;fill-rule:nonzero;stroke:none"
         id="path32" />
      <path
         d="m 20038.9,10546 c -1096.2,0 -2131.7,133.2 -3076,390.3 -185.1,50.4 -366.7,105.5 -544.5,165.3 99.8,371.1 246.9,720.2 433.8,1039 980.6,-275.1 2056.9,-418.9 3186.6,-418.9 1104.1,0 2157.2,137.4 3119.8,400.4 185.7,-320.6 331.3,-671.3 429.2,-1044 -1067.2,-349.5 -2266.6,-532.1 -3548.9,-532.1"
         style="fill:#a1a3c8;fill-opacity:1;fill-rule:nonzero;stroke:none"
         id="path34" />
      <path
         d="m 14036.7,12359 c -44,34.5 -87.4,69.5 -130.3,104.9 77.9,294.1 181.5,593.4 313.7,896.4 41.9,-29.6 84.3,-58.9 127.1,-87.8 -133.4,-309.7 -235.8,-614.7 -310.5,-913.5"
         style="fill:#000072;fill-opacity:1;fill-rule:nonzero;stroke:none"
         id="path36" />
      <path
         d="m 21601.4,7502.9 h -3484.2 c -465.9,0 -843.6,377.7 -843.6,843.6 v 43.8 c 0,465.9 377.7,843.6 843.6,843.6 h 3484.2 c 465.9,0 843.6,-377.7 843.6,-843.6 v -43.8 c 0,-465.9 -377.7,-843.6 -843.6,-843.6"
         style="fill:#f21ca0;fill-opacity:1;fill-rule:nonzero;stroke:none"
         id="path38" />
      <path
         d="m 21601.5,7502.9 h -594.4 v 0 h 594.3 c 143.1,0 277.9,35.6 395.9,98.5 -118,-62.9 -252.8,-98.5 -395.8,-98.5"
         style="fill:#525696;fill-opacity:1;fill-rule:nonzero;stroke:none"
         id="path40" />
      <path
         d="m 20611.2,7502.9 h -1474.6 v 0 h 1474.6 v 0"
         style="fill:#a1a3c8;fill-opacity:1;fill-rule:nonzero;stroke:none"
         id="path42" />
      <path
         d="M 18740.7,7502.9 H 18117 c -136.2,0 -265,32.3 -378.9,89.7 114,-57.4 242.8,-89.7 379.1,-89.7 h 623.5 v 0"
         style="fill:#525696;fill-opacity:1;fill-rule:nonzero;stroke:none"
         id="path44" />
      <path
         d="m 19136.6,7502.9 h -395.9 v 0 h 395.9 v 0 0"
         style="fill:#000072;fill-opacity:1;fill-rule:nonzero;stroke:none"
         id="path46" />
      <path
         d="m 22421.5,8148 v 0 c 4.4,18.1 8.1,36.5 11.3,55.1 0,0 0,0 0,-0.1 -3.1,-18.5 -6.9,-36.9 -11.3,-55 m 11.8,57.5 c 0.2,1.2 0.4,2.5 0.5,3.7 6.7,40.9 10.5,82.7 11.1,125.4 0,0.1 0,0.2 0,0.4 0,0.4 0,0.9 0,1.3 0,0.5 0,1.1 0,1.6 0,0.2 0,0.5 0,0.7 0,0.3 0,0.5 0,0.8 -0.3,-45.6 -4.3,-90.3 -11.6,-133.9 m 11.6,134 c 0,0.4 0,0.9 0,1.3 0,0.1 0,0.2 0,0.3 0,0.1 0,0.3 0,0.4 0,-0.7 0,-1.3 0,-2 m 0.1,3 c 0,0.4 0,0.9 0,1.3 0,-0.4 0,-0.9 0,-1.3 m 0,47.9 c 0,0.8 0,1.6 0,2.4 0,-0.8 0,-1.6 0,-2.4 v 0"
         style="fill:#767ba5;fill-opacity:1;fill-rule:nonzero;stroke:none"
         id="path48" />
      <path
         d="m 22358.6,7974.3 c 27,54.8 48.2,113 62.9,173.7 v 0 c -14.7,-60.8 -35.9,-118.9 -62.9,-173.7 m -5005,13.2 c -0.1,0 -0.1,0.1 -0.1,0.1 0,0 0,-0.1 0.1,-0.1"
         style="fill:#525696;fill-opacity:1;fill-rule:nonzero;stroke:none"
         id="path50" />
      <path
         d="m 17297.2,8147.3 c -4.4,18.3 -8.3,36.9 -11.5,55.7 0,0.1 0,0.1 0,0.1 3.3,-18.8 7.1,-37.5 11.6,-55.8 h -0.1 m -11.5,56.1 c -7.7,44.9 -11.8,91 -12.1,138.1 0,-0.1 0,-0.3 0,-0.4 0,-0.1 0,-0.2 0,-0.4 0,-0.6 0,-1.3 0,-2 0,-0.3 0,-0.6 0,-0.9 0,-0.5 0.1,-0.9 0.1,-1.3 0,-0.6 0,-1 0,-1.6 0,0 0,-0.1 0,-0.2 0.6,-43.5 4.5,-86.3 11.4,-128.1 0.2,-1.1 0.4,-2.1 0.6,-3.2 m -12.1,139.1 c 0,0.4 0,0.9 0,1.3 0,-0.4 0,-0.9 0,-1.3"
         style="fill:#767ba5;fill-opacity:1;fill-rule:nonzero;stroke:none"
         id="path52" />
      <path
         d="m 17353.3,7988.2 c -23.8,50.5 -42.7,103.7 -56.1,159.1 h 0.1 c 13.4,-55.4 32.2,-108.6 56,-159.1"
         style="fill:#525696;fill-opacity:1;fill-rule:nonzero;stroke:none"
         id="path54" />
      <path
         d="m 17273.6,8390.3 v 0.1 c 0,0.8 0,1.6 0,2.4 0,-0.8 0,-1.6 0,-2.4 v -0.1 0 m 5171.4,3.3 c 0,0.6 0,1.1 -0.1,1.7 0.1,-0.6 0.1,-1.1 0.1,-1.7 m -5171.4,0 c 0,0.6 0,1.1 0,1.7 0,-0.5 0,-1.1 0,-1.7 m 0,2.6 c 0,0.5 0,1.1 0,1.7 0,-0.6 0,-1.2 0,-1.7 m 5171.3,0 c 0,0.7 0,1.4 0,2.1 0,-0.7 0,-1.4 0,-2.1 m 0,3.5 c 0,0.3 0,0.6 0,0.8 0,-0.3 0,-0.5 0,-0.8 m -5171.3,0.1 c 0.1,0.2 0.1,0.5 0.1,0.7 0,-0.2 0,-0.4 -0.1,-0.7 m 5171.3,2.4 v 0.2 c 0,-0.1 0,-0.1 0,-0.2"
         style="fill:#767ba5;fill-opacity:1;fill-rule:nonzero;stroke:none"
         id="path56" />
      <path
         d="m 21601.4,7502.9 h -594.3 c -49.7,36.6 -98.6,75.2 -146.9,115.8 -28.4,23.9 -63,35.6 -97.5,35.6 -43.1,0 -85.9,-18.3 -115.9,-53.9 -23.9,-28.4 -35.6,-63.1 -35.6,-97.5 h -1474.6 -395.9 -623.5 c -136.3,0 -265.1,32.3 -379.1,89.7 -168.2,84.8 -304.1,224.2 -384.5,394.9 -0.1,0 -0.1,0.1 -0.1,0.1 -0.1,0.2 -0.2,0.4 -0.2,0.6 -23.8,50.5 -42.6,103.7 -56,159.1 -4.5,18.3 -8.3,37 -11.6,55.8 16.2,94.8 48.2,184.3 93.2,265.5 143.7,-259.6 420.6,-435.6 738.1,-435.6 h 3484.5 c 317.5,0 594.4,176 738.2,435.6 45,-81.2 76.9,-170.6 93.1,-265.5 -3.2,-18.6 -6.9,-37 -11.3,-55.1 -14.7,-60.7 -35.9,-118.9 -62.9,-173.7 0,-0.2 -0.1,-0.3 -0.2,-0.5 0,-0.1 -0.1,-0.1 -0.1,-0.2 -78.3,-158.7 -205.1,-289.2 -361,-372.2 -118,-62.9 -252.8,-98.5 -395.9,-98.5 m -4316.3,703.7 c -6.9,41.8 -10.8,84.6 -11.4,128.1 0.6,-43.6 4.6,-86.2 11.4,-128.1 m 5148.7,2.6 c 6.6,41 10.5,82.7 11.1,125.4 -0.6,-42.7 -4.4,-84.5 -11.1,-125.4 m -5160.1,125.7 c 0,0.6 0,1 0,1.6 0,-0.6 0,-1.1 0,-1.6 m 5171.2,0.1 c 0,0.4 0,0.9 0,1.3 0,-0.4 0,-0.9 0,-1.3 m -5171.3,2.8 c 0,0.3 0,0.6 0,0.9 0,-0.3 0,-0.6 0,-0.9 m 5171.3,0.1 c 0,0.2 0,0.5 0,0.7 0,-0.2 0,-0.5 0,-0.7 m -5171.3,2.8 c 0,0.2 0,0.3 0,0.4 0,-0.1 0,-0.2 0,-0.4 m 5171.3,0.1 c 0,0.1 0,0.2 0,0.3 0,-0.1 0,-0.2 0,-0.3"
         style="fill:#a91492;fill-opacity:1;fill-rule:nonzero;stroke:none"
         id="path58" />
      <path
         d="m 22432.8,8203 v 0 c 0.2,0.9 0.3,1.7 0.5,2.5 -0.2,-0.8 -0.3,-1.6 -0.5,-2.5 m -5147.1,0 c 0,0.2 0,0.3 0,0.4 0,-0.1 0,-0.2 0,-0.4 v 0 m 5159.2,136.4 v 0.1 -0.1 m 0,2.1 c 0,0.3 0.1,0.7 0.1,1 0,-0.3 -0.1,-0.7 -0.1,-1 m -5171.3,0 c 0,0.3 0,0.6 0,1 0,-0.4 0,-0.7 0,-1 m 5171.4,2.3 c 0,0.8 0,1.7 0,2.5 v 44.1 0 -44.1 c 0,-0.8 0,-1.7 0,-2.5 m -5171.4,0 c 0,0.8 0,1.7 0,2.5 v 0 c 0,-0.8 0,-1.7 0,-2.5 m 5171.4,49 c 0,0.1 0,0.1 0,0.1 0,0.1 0,0.2 0,0.2 0,0.2 0,0.4 0,0.5 0,-0.2 0,-0.5 0,-0.8 m -5171.4,0 c 0,0.3 0,0.6 0,0.8 0,-0.1 0,-0.3 0,-0.5 0,0 0,-0.1 0,-0.2 0,0 0,0 0,-0.1 m 5171.3,2.5 c 0,0.3 0,0.6 0,0.9 0,-0.3 0,-0.6 0,-0.9 m -5171.3,0 c 0,0.3 0,0.6 0,0.9 0,-0.3 0,-0.6 0,-0.9 m 0,2.6 c 0,0.6 0,1.3 0,1.9 0,-0.6 0,-1.3 0,-1.9 m 5171.3,0.4 c 0,0.5 0,1 0,1.4 0,-0.4 0,-0.9 0,-1.4 m -5171.2,2.2 c 1,86 14.8,168.8 39.8,246.8 -23.4,-73.2 -37.1,-150.8 -39.5,-231.2 v -0.1 c 0,-0.6 -0.1,-1.2 -0.1,-1.8 0,-0.6 0,-1.3 0,-1.9 0,-0.2 0,-0.3 0,-0.5 -0.1,-0.8 -0.1,-1.5 -0.1,-2.3 0,-0.1 0,-0.2 0,-0.3 -0.1,-2.9 -0.1,-5.8 -0.1,-8.7 m 5171.2,0 c 0,0.6 0,1.2 0,1.7 0,-0.6 0,-1.1 0,-1.7 m 0,1.9 c -0.1,4 -0.2,8 -0.3,12.1 0,0.3 0,0.6 0,0.9 0,0.4 0,0.8 0,1.2 -2.6,83.1 -17.2,163.2 -42.1,238.6 26.4,-79.7 41.2,-164.6 42.4,-252.8 m -660.2,811.5 c -0.1,0 -0.3,0.1 -0.4,0.1 0.1,0 0.3,-0.1 0.4,-0.1 m -1.7,0.4 c -0.5,0.1 -0.9,0.2 -1.3,0.3 0.4,-0.1 0.8,-0.2 1.3,-0.3 m -1.7,0.3 c -28.1,6.1 -56.7,10.8 -85.7,14.1 29,-3.3 57.6,-8 85.7,-14.1 m -3832.4,2.5 c 0.3,0 0.5,0.1 0.8,0.1 -0.3,0 -0.5,-0.1 -0.8,-0.1 m 1.8,0.4 c 0.6,0.1 1.1,0.2 1.6,0.3 -0.5,-0.1 -1,-0.2 -1.6,-0.3 m 1.9,0.3 c 21.4,4.3 43.1,7.7 65.1,10.3 -22,-2.6 -43.7,-6 -65.1,-10.3 m 65.7,10.3 c 0.7,0.1 1.3,0.2 2,0.3 -0.7,-0.1 -1.3,-0.2 -2,-0.3 m 3.9,0.5 c 0.2,0 0.5,0 0.7,0.1 -0.2,-0.1 -0.5,-0.1 -0.7,-0.1 m 3672.6,0.2 c -0.6,0 -1.2,0.1 -1.8,0.2 0.6,-0.1 1.2,-0.2 1.8,-0.2 m -4.2,0.4 c -0.1,0 -0.1,0 -0.2,0 0,0 0.1,0 0.2,0"
         style="fill:#dddfe4;fill-opacity:1;fill-rule:nonzero;stroke:none"
         id="path60" />
      <path
         d="m 22445,8392.9 c 0,0.1 0,0.2 0,0.2 0,0 0,-0.1 0,-0.2 m -5171.4,0 c 0,0.1 0,0.2 0,0.2 0,0 0,-0.1 0,-0.2 m 0.2,16.3 c 0,0.1 0,0.2 0,0.3 0,-0.1 0,-0.2 0,-0.3 m 0.1,2.6 c 0,0.2 0,0.3 0,0.5 0,-0.2 0,-0.3 0,-0.5 m 0,2.4 c 0,0.6 0.1,1.2 0.1,1.8 0,-0.6 -0.1,-1.2 -0.1,-1.8 m 5170.7,0.3 c 0,0.3 0,0.6 0,0.9 0,-0.3 0,-0.6 0,-0.9 m -5170.6,1.6 c 2.4,80.4 16.1,158 39.5,231.2 92,288.1 334.8,508.9 635.4,569.8 0.3,0 0.5,0.1 0.8,0.1 0.4,0.1 0.7,0.2 1,0.3 0.6,0.1 1.1,0.2 1.6,0.3 0.1,0 0.2,0 0.3,0 21.4,4.3 43.1,7.7 65.1,10.3 0.2,0 0.4,0 0.6,0 0.7,0.1 1.3,0.2 2,0.3 0.6,0 1.3,0.1 1.9,0.2 0.2,0 0.5,0 0.7,0.1 30.9,3.4 62.3,5.2 94.1,5.2 h 3099.9 c 58.6,-52.6 128.1,-98.6 207.3,-136.6 21.1,-10.1 43.4,-14.9 65.4,-14.9 56.4,0 110.6,31.7 136.7,86 10,20.8 14.8,42.9 14.9,64.5 16.5,-0.7 32.9,-2 49.2,-3.7 0.1,0 0.1,0 0.2,0 0.8,-0.1 1.6,-0.2 2.4,-0.2 0.6,-0.1 1.2,-0.2 1.8,-0.2 0.2,-0.1 0.5,-0.1 0.8,-0.1 29,-3.3 57.6,-8 85.7,-14.1 0.1,0 0.2,0 0.4,0 0.4,-0.1 0.8,-0.2 1.3,-0.3 0.4,-0.1 0.8,-0.2 1.3,-0.3 0.1,0 0.3,-0.1 0.4,-0.1 290.9,-64.5 525.5,-279.3 617.8,-558.7 24.9,-75.4 39.5,-155.5 42.1,-238.6 -2.4,75.1 -14.6,147.9 -35.6,216.6 -17.3,-57.7 -40.7,-112.8 -69.3,-164.6 -143.8,259.8 -420.4,435.5 -738.2,435.5 H 18117 c -317.7,0 -594.3,-175.7 -738.1,-435.5 -28.7,51.8 -52,106.9 -69.4,164.6 -21,-68.8 -33.2,-141.8 -35.5,-217.1"
         style="fill:#faa4d9;fill-opacity:1;fill-rule:nonzero;stroke:none"
         id="path62" />
      <path
         d="m 22432.8,8203 c 0,0.1 0,0.1 0,0.1 0.4,2 0.7,4.1 1,6.1 -0.1,-1.2 -0.3,-2.5 -0.5,-3.7 -0.2,-0.8 -0.3,-1.6 -0.5,-2.4 m 12.1,131.5 c 0,0.1 0,0.3 0,0.4 0,-0.2 0,-0.3 0,-0.4 m 0,1.7 c 0,0.5 0,1.1 0,1.6 0,-0.5 0,-1.1 0,-1.6 m 0,2.3 c 0,0.7 0,1.5 0,2.2 0,-0.4 0,-0.9 0,-1.3 v -0.1 c 0,-0.3 0,-0.5 0,-0.8 m 0,2.5 c 0.1,1.8 0.1,3.6 0.1,5.4 v 43.8 c 0,0.9 0,1.8 0,2.6 0,0 0,0 0,-0.1 0,-0.8 0,-1.6 0,-2.4 v -44.1 c 0,-0.8 0,-1.7 0,-2.5 0,-0.4 0,-0.9 0,-1.3 0,-0.3 -0.1,-0.7 -0.1,-1 0,-0.1 0,-0.3 0,-0.4"
         style="fill:#c8cadb;fill-opacity:1;fill-rule:nonzero;stroke:none"
         id="path64" />
      <path
         d="m 17285.7,8203 c 0,0.2 0,0.3 0,0.4 -0.2,1.1 -0.4,2.1 -0.6,3.2 0.2,-1.2 0.4,-2.3 0.6,-3.5 0,0 0,0 0,-0.1 m -12,131.7 c 0,0.1 0,0.2 0,0.2 0,0 0,-0.1 0,-0.2 m 0,1.8 c 0,0.4 -0.1,0.8 -0.1,1.3 0,-0.5 0.1,-0.9 0.1,-1.3 m -0.1,2.2 c 0,0.7 0,1.4 0,2 0,-0.6 0,-1.3 0,-2 m 0,2.4 c 0,0.1 0,0.3 0,0.4 0,0.3 0,0.6 0,1 0,0.4 0,0.9 0,1.3 0,0.8 0,1.7 0,2.5 v 0.2 c 0,-1.8 0,-3.6 0,-5.4"
         style="fill:#c8cadb;fill-opacity:1;fill-rule:nonzero;stroke:none"
         id="path66" />
      <path
         d="m 17273.6,8390.3 v 0.1 c 0,0.8 0,1.6 0,2.4 0,0.1 0,0.1 0,0.1 0,-0.8 0,-1.7 0,-2.6 m 5171.4,2.8 c -0.1,7.2 -0.2,14.3 -0.4,21.4 0.1,-4.1 0.2,-8.1 0.3,-12.1 v -0.2 c 0,-0.5 0,-1.1 0,-1.7 0,-0.2 0,-0.5 0,-0.8 0,-0.4 0,-0.9 0,-1.4 0,-0.7 0,-1.4 0,-2.1 0,-0.3 0,-0.6 0,-0.9 0.1,-0.6 0.1,-1.1 0.1,-1.7 0,-0.1 0,-0.3 0,-0.5 m -5171.4,0 c 0,0.2 0,0.4 0,0.5 0,0.6 0,1.2 0,1.7 0,0.3 0,0.6 0,0.9 0,0.5 0,1.1 0,1.7 0,0.6 0,1.3 0,1.9 0.1,0.3 0.1,0.5 0.1,0.7 0,2.9 0,5.8 0.1,8.7 -0.1,-5.4 -0.2,-10.7 -0.2,-16.1 m 0.2,16.4 c 0,0.8 0,1.5 0.1,2.3 -0.1,-0.8 -0.1,-1.5 -0.1,-2.3 m 0.1,2.8 c 0,0.6 0,1.3 0,1.9 0,-0.6 0,-1.3 0,-1.9 m 5170.7,3.1 c 0,0.4 0,0.8 0,1.2 0,-0.4 0,-0.8 0,-1.2 M 17274,8416 v 0.1 -0.1"
         style="fill:#c8cadb;fill-opacity:1;fill-rule:nonzero;stroke:none"
         id="path68" />
      <path
         d="m 17285.7,8203.1 c -0.2,1.2 -0.4,2.3 -0.6,3.5 -6.8,41.9 -10.8,84.5 -11.4,128.1 0,0.1 0,0.2 0,0.2 0,0.5 0,1 0,1.6 0,0.4 -0.1,0.8 -0.1,1.3 0,0.3 0,0.6 0,0.9 0,0.7 0,1.4 0,2 0,0.2 0,0.3 0,0.4 0,1.8 0,3.6 0,5.4 v 43.8 c 0,0.9 0,1.8 0,2.6 0,0.1 0,0.2 0,0.2 0,5.4 0.1,10.7 0.2,16.1 0,0.1 0,0.2 0,0.3 0,0.8 0,1.5 0.1,2.3 0,0.2 0,0.3 0,0.5 0,0.6 0,1.3 0,1.9 0,0.6 0.1,1.2 0.1,1.8 v 0.1 c 2.3,75.3 14.5,148.3 35.5,217.1 17.4,-57.7 40.7,-112.8 69.4,-164.6 -45,-81.2 -77,-170.7 -93.2,-265.5 m 5147.1,0 c -16.2,94.9 -48.1,184.3 -93.1,265.5 28.6,51.8 52,106.9 69.3,164.6 21,-68.7 33.2,-141.5 35.6,-216.6 0,-0.4 0,-0.8 0,-1.2 0,-0.3 0,-0.6 0,-0.9 0.2,-7.1 0.3,-14.2 0.4,-21.4 0,0 0,-0.1 0,-0.2 0,-0.8 0,-1.7 0,-2.6 v -43.8 c 0,-1.8 0,-3.6 -0.1,-5.4 0,-0.1 0,-0.2 0,-0.3 0,-0.7 0,-1.5 0,-2.2 0,-0.2 0,-0.5 0,-0.7 0,-0.5 0,-1.1 0,-1.6 0,-0.4 0,-0.9 0,-1.3 0,-0.1 0,-0.3 0,-0.4 -0.6,-42.7 -4.5,-84.4 -11.1,-125.4 -0.3,-2 -0.6,-4.1 -1,-6.1"
         style="fill:#dda1d3;fill-opacity:1;fill-rule:nonzero;stroke:none"
         id="path70" />
      <path
         d="m 18258.2,9082.4 c -56.4,0 -110.6,31.7 -136.6,86 -36.2,75.4 -4.4,165.9 71,202 160,76.7 250.7,192.5 255.6,326.1 4.3,119.5 -61.2,235.8 -166.8,296.1 -122.1,69.8 -275.4,53.4 -431.3,-46.3 -265.4,-169.6 -556.2,-260.7 -840.8,-263.3 -7.6,-0.1 -15.1,-0.1 -22.5,-0.1 -1144.8,0 -1441.4,825.8 -1571.6,1547.2 -14.9,82.3 39.8,161.1 122.1,175.9 82.5,14.8 161.2,-39.8 176,-122.1 166.2,-920.5 535.5,-1298.1 1272.7,-1298.1 6.8,0 13.6,0 20.4,0.1 227.8,2.1 463.1,76.7 680.6,215.7 251.7,160.9 523.2,180.6 744.7,54 202.2,-115.5 327.5,-339.3 319.2,-570 -8.9,-248 -164.7,-462.4 -427.3,-588.3 -21.1,-10.1 -43.4,-14.9 -65.4,-14.9"
         style="fill:#000072;fill-opacity:1;fill-rule:nonzero;stroke:none"
         id="path72" />
      <path
         d="m 18117.2,9082.4 c -381.7,0 -692.1,-310.5 -692.1,-692.1 v -43.8 c 0,-381.7 310.4,-692.2 692.1,-692.2 h 3484.2 c 381.6,0 692.1,310.5 692.1,692.2 v 43.8 c 0,381.6 -310.5,692.1 -692.1,692.1 z m 3484.2,-1731 h -3484.2 c -548.7,0 -995.1,446.4 -995.1,995.1 v 43.8 c 0,548.6 446.4,995 995.1,995 h 3484.2 c 548.6,0 995,-446.4 995,-995 v -43.8 c 0,-548.7 -446.4,-995.1 -995,-995.1"
         style="fill:#000072;fill-opacity:1;fill-rule:nonzero;stroke:none"
         id="path74" />
      <path
         d="m 18431.2,7968.5 h -876.3 c -155.4,0 -281.3,126 -281.3,281.3 0,155.4 125.9,281.3 281.3,281.3 h 876.3 c 155.4,0 281.3,-125.9 281.3,-281.3 0,-155.3 -125.9,-281.3 -281.3,-281.3"
         style="fill:#000072;fill-opacity:1;fill-rule:nonzero;stroke:none"
         id="path76" />
      <path
         d="m 22163.7,7968.5 h -876.3 c -155.4,0 -281.3,126 -281.3,281.3 0,155.4 125.9,281.3 281.3,281.3 h 876.3 c 155.3,0 281.3,-125.9 281.3,-281.3 0,-155.3 -126,-281.3 -281.3,-281.3"
         style="fill:#000072;fill-opacity:1;fill-rule:nonzero;stroke:none"
         id="path78" />
      <path
         d="m 19553.5,9497.1 h -380.1 c -49.4,0 -89.5,-40 -89.5,-89.4 v -116.9 c 0,-49.3 40.1,-89.4 89.5,-89.4 h 380.1 c 49.4,0 89.4,40.1 89.4,89.4 v 116.9 c 0,49.4 -40,89.4 -89.4,89.4"
         style="fill:#000072;fill-opacity:1;fill-rule:nonzero;stroke:none"
         id="path80" />
      <path
         d="m 20545.2,9497.1 h -380.1 c -49.4,0 -89.4,-40 -89.4,-89.4 v -116.9 c 0,-49.3 40,-89.4 89.4,-89.4 h 380.1 c 49.4,0 89.4,40.1 89.4,89.4 v 116.9 c 0,49.4 -40,89.4 -89.4,89.4"
         style="fill:#000072;fill-opacity:1;fill-rule:nonzero;stroke:none"
         id="path82" />
      <path
         d="m 18160.7,9682.9 h 481.5 c 92.6,0 167.7,-75.1 167.7,-167.7 v -281.3 h -816.8 v 281.3 c 0,92.6 75,167.7 167.6,167.7"
         style="fill:#000072;fill-opacity:1;fill-rule:nonzero;stroke:none"
         id="path84" />
      <path
         d="m 22492.5,6698.6 c -661.4,0 -1291.4,236.9 -1827.4,688.4 -64,53.9 -72.2,149.5 -18.3,213.4 53.9,64 149.5,72.1 213.4,18.3 990.4,-834.3 2296.5,-824.4 3408.8,25.6 1331.7,1017.7 2230.7,3264.8 1057.7,5793.6 -35.3,75.9 -2.3,165.9 73.6,201.1 75.9,35.2 165.9,2.3 201.2,-73.6 564.5,-1217 717.9,-2474.4 443.7,-3636.5 -242.9,-1029.4 -808.4,-1926.3 -1592.3,-2525.3 -574.6,-439.1 -1221.2,-682.4 -1869.8,-703.6 -30.2,-0.9 -60.5,-1.4 -90.6,-1.4"
         style="fill:#000072;fill-opacity:1;fill-rule:nonzero;stroke:none"
         id="path86" />
      <path
         d="m 21489.6,9082.4 c -22,0 -44.3,4.8 -65.4,14.9 -262.6,125.9 -418.4,340.3 -427.3,588.3 -8.3,230.7 117,454.5 319.2,570 221.5,126.5 492.9,106.9 744.7,-54 217.5,-139 452.8,-213.6 680.6,-215.7 750.9,-8 1125.4,369 1293.1,1298 14.9,82.3 93.5,137.1 176,122.1 82.3,-14.8 137,-93.6 122.1,-175.9 -131,-726 -428.8,-1557.6 -1594.1,-1547.1 -284.6,2.7 -575.4,93.7 -840.9,263.3 -155.8,99.7 -309,116.1 -431.2,46.3 -105.6,-60.3 -171,-176.6 -166.8,-296.1 4.9,-133.6 95.6,-249.3 255.6,-326.1 75.4,-36.1 107.2,-126.6 71.1,-202 -26.1,-54.3 -80.3,-86 -136.7,-86"
         style="fill:#000072;fill-opacity:1;fill-rule:nonzero;stroke:none"
         id="path88" />
      <path
         d="m 21587.1,9682.9 h -481.5 c -92.6,0 -167.7,-75.1 -167.7,-167.7 v -281.3 h 816.8 v 281.3 c 0,92.6 -75,167.7 -167.6,167.7"
         style="fill:#000072;fill-opacity:1;fill-rule:nonzero;stroke:none"
         id="path90" />
      <path
         d="m 30156.5,18176.9 h -1557.9 c 0,4256.5 -3853.6,7719.8 -8590.9,7719.8 -4737.3,0 -8591,-3463.3 -8591,-7719.8 H 9858.83 c 0,5123.8 4543.87,9277.7 10148.87,9277.7 5604.9,0 10148.8,-4153.9 10148.8,-9277.7"
         style="fill:#00a4ff;fill-opacity:1;fill-rule:nonzero;stroke:none"
         id="path92" />
      <path
         d="m 28385.7,23151.6 c -21.1,2.6 -42.5,4.1 -64.2,4.3 l -16.7,0.1 c -1.5,0 -2.9,0 -4.3,0 -16.5,0 -32.8,-0.7 -48.9,-2.2 -122.4,155.6 -249.9,307.4 -382.3,455.6 v 199.3 c 182.4,-211.9 354.7,-430.9 516.4,-657.1 m -16623.1,0.7 c -20.7,2.5 -41.8,3.7 -63.2,3.7 -1.4,0 -2.9,0 -4.3,0 l -16.7,-0.1 c -16,-0.2 -31.8,-1 -47.4,-2.5 156.7,219.1 323.4,431.7 499.6,637.2 v -198.7 c -127.2,-142.9 -250.1,-289.8 -368,-439.6 m 4654.5,3269.5 -257.1,178.4 c 1185,452.8 2484.7,703 3847.7,703 1340.6,0 2620.8,-242.3 3790.1,-681.2 l -262.5,-178.7 c -1098.7,372.4 -2287.2,575.8 -3527.6,575.8 -1264,0 -2474.5,-211.4 -3590.6,-597.3"
         style="fill:#99dbff;fill-opacity:1;fill-rule:nonzero;stroke:none"
         id="path94" />
      <path
         d="m 20151.4,8368.4 c 0,-161.4 -130.8,-292.1 -292.1,-292.1 -161.3,0 -292.1,130.7 -292.1,292.1 0,161.3 130.8,292.1 292.1,292.1 161.3,0 292.1,-130.8 292.1,-292.1"
         style="fill:#000072;fill-opacity:1;fill-rule:nonzero;stroke:none"
         id="path96" />
      <path
         d="m 28748.5,18328.4 h 1255.2 c -89.1,4962.5 -4539,8974.8 -9996,8974.8 -5457.1,0 -9907,-4012.3 -9996.1,-8974.8 h 1255.2 c 90,4270.6 3976.5,7719.8 8740.9,7719.8 4764.3,0 8650.8,-3449.2 8740.8,-7719.8 m 1559.5,-303 h -1860.9 v 151.5 c 0,4173.2 -3785.9,7568.4 -8439.4,7568.4 -4653.6,0 -8439.5,-3395.2 -8439.5,-7568.4 v -151.5 H 9707.37 v 151.5 c 0,5199.3 4620.73,9429.2 10300.33,9429.2 5679.6,0 10300.3,-4229.9 10300.3,-9429.2 v -151.5"
         style="fill:#000072;fill-opacity:1;fill-rule:nonzero;stroke:none"
         id="path98" />
      <path
         d="m 28379.3,18557.9 c 0,-2140 -938.2,-3836.3 -2486.2,-4984.4 -1486,-1102.7 -3534.3,-1700.3 -5854.2,-1700.3 -1096.2,0 -2131.7,133.3 -3076,390.3 -824,224.2 -1577.8,542.7 -2242.5,948.6 l -0.4,0.9 c -896.7,547.4 -1629.3,1254.5 -2148.2,2105.3 -561.3,918.7 -873.3,2005.4 -873.3,3239.6 0,1002.2 205.6,1959 583.3,2834.9 v 4908.7 c 0,1216.9 1224.7,1955.6 2162.9,1304.7 l 2732,-1895.8 c 885.8,286 1848.2,441.8 2862.2,441.8 698.4,0 1372.7,-74 2013.5,-213.8 248.4,-53.6 491.7,-117.7 729.7,-190.8 l 2783.8,1894.5 c 938.7,638.8 2151.7,-100.8 2151.7,-1311.6 v -4763.3 c 325.4,-701.9 538.8,-1459.2 621.8,-2252 26.4,-248.8 39.9,-501.6 39.9,-757.3"
         style="fill:#a9b0bb;fill-opacity:1;fill-rule:nonzero;stroke:none"
         id="path100" />
      <path
         d="m 20038.8,12024.6 c -4097.7,0 -7070.5,1837.4 -7932.5,4726.1 1.3,1.5 2.7,2.9 4,4.4 105.3,117.1 170.4,277.6 170.4,454.3 l 0.2,937.4 c 87.8,-185.4 184.9,-364.9 290.9,-538.4 518.9,-850.8 1251.5,-1557.9 2148.2,-2105.3 l 0.4,-0.9 c 664.7,-405.9 1418.5,-724.4 2242.5,-948.6 944.3,-257 1979.8,-390.3 3076,-390.3 522.5,0 1031.3,30.3 1522.9,89.9 l 26,-340.4 27.5,-361.3 c 4.6,-61 22.9,-117.7 51.5,-167.4 46,-79.7 118.7,-141.2 205,-173.3 42.9,-16 89.2,-24.7 137.2,-24.7 10.1,0 20.3,0.4 30.5,1.2 l 1122.3,85.4 c 147.7,11.2 270.4,102.4 328.7,227.9 l 2265.1,161.2 c -1421.3,-1043.2 -3387.4,-1637.2 -5716.8,-1637.2 m 3408.5,2514.1 c -12.6,34.7 -30,67 -51.2,96.2 940.5,286.3 1783.5,699.3 2497,1228.7 775.4,575.2 1397.9,1287.9 1825.9,2125 l 0.3,-779.2 c 0,-210.3 92.2,-397.8 234.6,-516.3 -217.5,-702.1 -560.5,-1341.3 -1014.6,-1905.9 l -3492,-248.5"
         style="fill:#767ba5;fill-opacity:1;fill-rule:nonzero;stroke:none"
         id="path102" />
      <path
         d="m 28339.4,19315.2 c -2575.7,-500.3 -5164.8,697.6 -6157.6,3023.6 -500.2,1171.5 -513.6,2437.7 -129.4,3599.6 248.4,-53.6 491.7,-117.7 729.7,-190.8 l 2783.8,1894.5 c 938.7,638.8 2151.7,-100.8 2151.7,-1311.6 v -4763.3 c 325.4,-701.9 538.8,-1459.2 621.8,-2252"
         style="fill:#e6eaed;fill-opacity:1;fill-rule:nonzero;stroke:none"
         id="path104" />
      <path
         d="m 17142.7,25231.8 c -75.6,0 -150.4,23.1 -213.9,67.2 l -2581.5,1791.4 c -239.7,166.4 -498.3,242 -750.3,242 -421.5,0 -824.7,-211.4 -1091.7,-563 109.4,343.4 338.5,629 650.4,792.3 173.8,90.9 356.3,136.1 537.7,136.1 229.8,0 458,-72.5 664.9,-216 l 2793.5,-1938.6 71.3,23 c 893.1,288.3 1840.4,434.5 2815.7,434.5 671.6,0 1330.7,-69.5 1968,-207.1 -35.9,-119.7 -67.6,-240.3 -95,-361.7 -628,133.7 -1287.6,204.5 -1970.3,204.5 -949.6,0 -1854.1,-136.7 -2692.8,-389 -34.8,-10.5 -70.5,-15.6 -106,-15.6"
         style="fill:#dddfe4;fill-opacity:1;fill-rule:nonzero;stroke:none"
         id="path106" />
      <path
         d="m 22684.7,25231.7 c -238,73.2 -481.2,137.2 -729.6,190.9 -14.4,3.1 -28.9,6.2 -43.3,9.3 27.4,121.4 59.1,242 95,361.7 247.1,-53.4 491,-117 730.9,-190.8 l 69.6,-21.4 2843.8,1935.5 c 204.7,139.4 429.7,209.6 656.1,209.6 183.1,0 367.1,-46 541.9,-138.5 442.4,-234 717.2,-715.9 717.2,-1257.5 v -85.9 c -174.1,671.4 -746.2,1116.5 -1357.5,1116.5 -248.3,0 -503,-73.3 -740.2,-234.8 l -2783.9,-1894.6"
         style="fill:#f5f7f8;fill-opacity:1;fill-rule:nonzero;stroke:none"
         id="path108" />
      <path
         d="m 13693.4,27697.8 c -181.4,0 -363.9,-45.2 -537.7,-136.1 -445.5,-233.2 -722.2,-716 -722.2,-1260.2 v -4940 l -12.4,-28.7 c -379,-878.5 -571.2,-1812.2 -571.2,-2774.9 0,-3907.8 3290.9,-6533.3 8188.9,-6533.3 4898,0 8188.9,2625.5 8188.9,6533.3 0,1027 -217.8,2018.1 -647.4,2945.6 l -14,30.3 v 4796.7 c 0,541.6 -274.8,1023.5 -717.2,1257.5 -391,206.9 -827.6,181 -1198,-71.1 l -2843.8,-1935.5 -69.6,21.4 c -858.8,264 -1766.8,397.9 -2698.9,397.9 -975.3,0 -1922.6,-146.2 -2815.7,-434.5 l -71.3,-23 -2793.5,1938.6 c -206.9,143.5 -435.1,216 -664.9,216 m 6345.4,-15976.1 c -2382.4,0 -4527.1,639.6 -6038.8,1800.9 -1604.7,1232.8 -2453,2973.9 -2453,5035.3 0,993.7 196.3,1957.8 583.6,2866 v 4877.6 c 0,657.3 339,1243 884.7,1528.6 489.8,256.3 1056.4,219.2 1515.7,-99.5 l 2670.7,-1853.3 c 902.1,282.9 1856.1,426.3 2837.1,426.3 937.1,0 1851.1,-131.2 2718.1,-390.1 l 2723.7,1853.9 c 459.4,312.5 1023.9,345.7 1510.2,88.4 541.8,-286.7 878.5,-871.2 878.5,-1525.3 v -4730.1 c 438.8,-959 661.3,-1982.5 661.3,-3042.5 0,-2061.4 -848.2,-3802.5 -2453,-5035.3 -1511.7,-1161.3 -3656.3,-1800.9 -6038.8,-1800.9"
         style="fill:#000072;fill-opacity:1;fill-rule:nonzero;stroke:none"
         id="path110" />
      <path
         d="m 15578.8,25395.9 -1375.9,976 c -317.8,225.5 -736.9,-27.3 -732.8,-442.2 7.2,-746 14,-1737.3 6,-2274.6 -2.2,-155.1 157.7,-246.7 272.8,-156.4 l 1839.6,1442.5 c 144,112.9 139,349.2 -9.7,454.7"
         style="fill:#f25fc1;fill-opacity:1;fill-rule:nonzero;stroke:none"
         id="path112" />
      <path
         d="m 13772.5,23030.3 c -90.3,0 -174.5,79.1 -172.9,192.2 1.3,74.3 2.1,157.8 2.6,247.7 15.1,-4.7 30.9,-7.2 46.9,-7.2 32.2,0 65.2,10.1 95.4,32.3 1.5,1.1 2.9,2.2 4.4,3.3 l 277.2,217.4 1562.4,1225.2 c 22.9,17.9 41.9,38.9 57.3,62 l 56.5,-40.2 c 148.4,-105.2 153.6,-341.9 9.5,-454.4 l -1839.6,-1442.8 c -31.3,-24.5 -66,-35.5 -99.7,-35.5"
         style="fill:#dddfe4;fill-opacity:1;fill-rule:nonzero;stroke:none"
         id="path114" />
      <path
         d="m 13649.1,23463 c -16,0 -31.8,2.5 -46.9,7.2 0,0.1 0,0.2 0,0.3 15.2,-4.8 31,-7.3 47,-7.3 32.2,0 65.1,10 95.3,32.1 -30.2,-22.2 -63.2,-32.3 -95.4,-32.3 m 377,253 1562.4,1225.4 c 22.9,18.1 42,38.9 56.7,62.3 l 0.6,-0.5 c -15.4,-23.1 -34.4,-44.1 -57.3,-62 L 14026.1,23716"
         style="fill:#fabfe6;fill-opacity:1;fill-rule:nonzero;stroke:none"
         id="path116" />
      <path
         d="m 26099.9,23128.5 c -33.8,0 -68.4,11.1 -99.8,35.6 l -1839.6,1442.7 c -144.1,112.6 -138.9,349.3 9.6,454.4 l 57.1,40.7 c 14.7,-23.4 33.7,-44.1 56.7,-62.3 l 1839.6,-1442.8 c 6.2,-4.8 12.6,-9.1 19.1,-13 l 20.7,-16.2 c 33.8,-26.5 70.5,-41.1 107.1,-45.5 0.5,-72.4 1.3,-140 2.4,-201.4 1.5,-113.1 -82.6,-192.2 -172.9,-192.2"
         style="fill:#f5f7f8;fill-opacity:1;fill-rule:nonzero;stroke:none"
         id="path118" />
      <path
         d="m 26522.5,23772.5 c -5.5,555.4 0.8,1462.7 7.6,2157.2 4,414.9 -415,667.7 -732.9,442.2 L 24391.8,25375 c -134.5,-95.4 -139,-309.3 -8.7,-411.4 l 1780.2,-1396 c 151.2,-118.6 361.3,1.1 359.2,204.9"
         style="fill:#f25fc1;fill-opacity:1;fill-rule:nonzero;stroke:none"
         id="path120" />
      <path
         d="m 24712.6,24705.1 -294.1,230.6 294.1,-230.6 v 0 m -17.3,885.1 1101.7,781.8 c 82,58.1 170.7,84.5 257,84.5 248.9,0 479,-218.6 476.1,-526.7 -0.4,-36.6 -0.7,-73.7 -1.1,-111.4 0.3,37.7 0.7,74.8 1.1,111.3 2.9,308 -227.2,526.7 -476,526.7 -86.4,0 -175,-26.4 -256.9,-84.5 l -1101.9,-781.7"
         style="fill:#a1a3c8;fill-opacity:1;fill-rule:nonzero;stroke:none"
         id="path122" />
      <path
         d="m 24712.6,24705.1 -294.1,230.6 -35.3,27.7 c -130.2,102.2 -125.9,316.4 8.7,411.6 l 303.4,215.2 1101.9,781.7 c 81.9,58.1 170.5,84.5 256.9,84.5 248.8,0 478.9,-218.7 476,-526.7 -0.4,-36.5 -0.8,-73.6 -1.1,-111.3 -0.9,-93.3 -1.9,-189.7 -2.8,-288.1 -86.7,86.3 -201.4,136.4 -320.5,136.4 -86.4,0 -175.1,-26.4 -257.2,-84.4 l -1235.9,-877.2"
         style="fill:#a942a9;fill-opacity:1;fill-rule:nonzero;stroke:none"
         id="path124" />
      <path
         d="m 15693.5,25165.1 c 0,8.5 -0.4,17 -1.1,25.4 0.7,-8.5 1.1,-16.9 1.1,-25.4 m -2238.1,365.2 c -1.3,138.1 -2.6,272.2 -3.9,399.5 -2.8,308.1 227.2,526.7 476.1,526.7 3.8,0 7.5,-0.1 11.3,-0.2 -246.1,-4.1 -471.8,-221.5 -468.8,-526.6 1.1,-121.9 2.3,-250.4 3.4,-382.3 -6.1,-5.5 -12.2,-11.2 -18.1,-17.1"
         style="fill:#767ba5;fill-opacity:1;fill-rule:nonzero;stroke:none"
         id="path126" />
      <path
         d="m 15269.1,24705.1 -1235.9,877.2 c -82.1,58 -170.8,84.4 -257.2,84.4 -111,0 -218.2,-43.5 -302.5,-119.3 -1.1,131.9 -2.3,260.4 -3.4,382.3 -3,305.1 222.7,522.5 468.8,526.6 82.8,-2.2 167.3,-28.7 245.7,-84.3 l 1405.2,-997 c 61.9,-43.8 96.2,-112.8 102.6,-184.5 0.7,-8.4 1.1,-16.9 1.1,-25.4 -0.3,-76 -31.8,-152.1 -95.1,-201.7 l -329.3,-258.3"
         style="fill:#a942a9;fill-opacity:1;fill-rule:nonzero;stroke:none"
         id="path128" />
      <path
         d="m 12137.4,21391.9 v 0.9 h 289.3 l -289.3,-0.9"
         style="fill:#1b75bc;fill-opacity:1;fill-rule:nonzero;stroke:none"
         id="path130" />
      <path
         d="m 13945.3,26304.8 c -45.3,0 -90.8,-11.2 -134.2,-33.9 -118.4,-61.9 -191,-192 -189.6,-339.7 7.2,-740.8 14.1,-1737.3 6.1,-2278.3 -0.4,-27 14.3,-35.7 17.3,-37.2 3.4,-1.6 4.8,-2.4 10.6,2.2 l 1839.6,1442.5 c 30.4,23.8 47.9,64.3 46.9,108.1 -1.1,43.9 -19.6,81.7 -50.8,103.8 l -1375.9,976.1 c -52.9,37.5 -111.3,56.4 -170,56.4 z m -296.7,-2993.1 c -47,0 -94.2,10.8 -138.3,32.6 -116.5,57.8 -187.6,177.7 -185.6,313.1 7.9,537.8 1.1,1531.8 -6.1,2270.9 -2.5,262 132.4,496.2 352.1,611.1 201.2,105.1 432.8,88.7 619.8,-43.9 l 1376,-976.1 c 108.3,-76.9 175,-205.3 178.3,-343.6 3.3,-139 -57.6,-271.3 -162.8,-353.8 l -1839.6,-1442.5 c -57.2,-44.8 -125.2,-67.8 -193.8,-67.8"
         style="fill:#000072;fill-opacity:1;fill-rule:nonzero;stroke:none"
         id="path132" />
      <path
         d="m 27573.1,21391.9 h 289.398 v 175.301 H 27573.1 Z"
         style="fill:#1b75bc;fill-opacity:1;fill-rule:nonzero;stroke:none"
         id="path134" />
      <path
         d="m 26054.8,26304.8 c -58.7,0 -117.1,-18.9 -169.9,-56.4 l -1405.5,-997 c -24.1,-17.1 -39,-47.9 -39.8,-82.5 -0.8,-35.1 13,-67.4 36.9,-86.2 l 1780.2,-1395.9 c 20.9,-16.4 42.6,-19 64.8,-8.2 24.3,12 50.1,42.6 49.6,92.4 -5.6,562.1 1,1485 7.5,2160.2 1.4,147.7 -71.2,277.8 -189.6,339.7 -43.4,22.7 -88.9,33.9 -134.2,33.9 z m 240.7,-2935.4 c -79.8,0 -159.1,26.8 -225.7,79 l -1780.2,1396 c -98.8,77.5 -156,201.5 -152.8,331.8 3.1,129.7 65.7,250.2 167.4,322.3 l 1405.4,997 c 186.9,132.6 418.6,149 619.8,43.8 219.7,-114.9 354.7,-349 352.1,-611 -6.5,-673.8 -13.1,-1594.6 -7.5,-2154.3 1.6,-159.2 -82.2,-299.8 -218.6,-367.1 -51,-25.1 -105.6,-37.5 -159.9,-37.5"
         style="fill:#000072;fill-opacity:1;fill-rule:nonzero;stroke:none"
         id="path136" />
      <path
         d="m 29577.5,17831.7 -168.7,-1970.3 -67.1,-784.1 c -50.6,-588.1 -514.6,-1045.1 -1103.1,-1087.1 l -5512.3,-392.1 -52,733.5 5512.4,392.5 c 225,16.1 402.4,190.9 421.9,415.9 l 53.7,626.2 182.2,2128.3 733,-62.8"
         style="fill:#f21ca0;fill-opacity:1;fill-rule:nonzero;stroke:none"
         id="path138" />
      <path
         d="m 23493.9,14119.5 -8.9,118.2 4712.2,335.4 c 149.5,10.6 283.2,73.7 382.9,171.5 -61.9,-162.1 -212.2,-278 -393.4,-290.9 l -4692.8,-334.2"
         style="fill:#faa4d9;fill-opacity:1;fill-rule:nonzero;stroke:none"
         id="path140" />
      <path
         d="m 22836,14191.5 30.7,-431.6 5361.3,381.5 c 513.8,36.6 918.7,435.6 962.6,948.9 l 223.1,2603.3 -431.2,36.9 -223,-2603.3 c -25.7,-299.7 -262.2,-532.8 -562.3,-554.1 L 22836,14191.5 m -249.9,-755.3 -73.8,1036 5663.4,403 c 150.5,10.7 269.1,127.6 282,277.9 l 248.9,2905.1 1034.8,-88.7 -248.9,-2905.1 c -56.8,-662.7 -579.6,-1177.9 -1243,-1225.2 l -5663.4,-403"
         style="fill:#000072;fill-opacity:1;fill-rule:nonzero;stroke:none"
         id="path142" />
      <path
         d="m 28820.4,15838.3 124.2,1449.6 c 3.5,0 7,0 10.5,0 146.8,0 289.9,16.7 428,48.4 l -124.3,-1450.2 c -39.1,4 -76.9,5.8 -113.1,5.8 -126.1,0 -234.7,-22.2 -325.3,-53.6"
         style="fill:#a91492;fill-opacity:1;fill-rule:nonzero;stroke:none"
         id="path144" />
      <path
         d="m 28662.3,15766.2 84.7,989.7 c 27.6,31.3 52.3,65.8 73.6,102.8 56.8,98.6 89.7,215.6 89.7,341.3 l -0.1,87.9 c 3.7,0.1 7.4,0.1 11.1,0.2 l 18.5,-0.2 c 1.6,0 3.2,0 4.8,0 l -124.2,-1449.6 c -60.8,-21.1 -113.5,-46.5 -158.1,-72.1 m 746.5,95.2 c -52.2,11.8 -102.2,19.8 -150,24.7 l 124.3,1450.2 c 52.7,12.1 104.6,26.4 155.7,42.8 l -130,-1517.7"
         style="fill:#000072;fill-opacity:1;fill-rule:nonzero;stroke:none"
         id="path146" />
      <path
         d="m 11693.3,16561.4 -16.7,-0.1 c -324.3,-2.6 -587.1,283.4 -587,638.7 l 1.5,5308 c 0.1,355.2 263,645.3 587.3,647.9 l 16.7,0.1 c 324.3,2.6 587.1,-283.4 587,-638.7 l -1.5,-5307.9 c -0.1,-355.3 -263.1,-645.4 -587.3,-648"
         style="fill:#5b28a5;fill-opacity:1;fill-rule:nonzero;stroke:none"
         id="path148" />
      <path
         d="m 11060,17287.9 29.6,0.3 1.4,5131.5 -29.5,-0.2 c -1148.87,-9 -2080.46,-1036.7 -2080.8,-2295.4 l -0.16,-573.5 c -0.34,-1258.7 930.68,-2271.7 2079.46,-2262.7"
         style="fill:#f21ca0;fill-opacity:1;fill-rule:nonzero;stroke:none"
         id="path150" />
      <path
         d="m 11672.2,16561.2 c -130,0 -250,46.4 -346.8,125.1 96.9,-78.6 216.8,-125 346.9,-125 1.4,0 2.9,0 4.3,0 l 7.6,0.1 -7.6,-0.2 c -1.5,0 -2.9,0 -4.4,0"
         style="fill:#0198d4;fill-opacity:1;fill-rule:nonzero;stroke:none"
         id="path152" />
      <path
         d="m 12280.9,18146.8 c 0,0 0,0 0,0.1 l 0.5,2047 -0.5,-2047.1"
         style="fill:#767ba5;fill-opacity:1;fill-rule:nonzero;stroke:none"
         id="path154" />
      <path
         d="m 12110.3,16755.1 c 105.2,117.1 170.2,277.6 170.3,454.3 l 0.3,937.5 c 0,-0.1 0,-0.1 0,-0.1 l -0.2,-937.4 c 0,-176.7 -65.1,-337.2 -170.4,-454.3"
         style="fill:#525696;fill-opacity:1;fill-rule:nonzero;stroke:none"
         id="path156" />
      <path
         d="m 11672.3,16561.3 c -130.1,0 -250,46.4 -346.9,125 -143.1,116.2 -235.6,302.7 -235.6,513.6 v 88 c 9.3,-0.1 18.7,-0.2 28,-0.2 4.9,0 9.8,0 14.7,0.1 l 29.4,0.4 0.4,1462 c 99,-196.7 290,-329.5 509.8,-329.5 1.5,0 3,0 4.5,0 h 16.8 c 324.2,2.6 587.3,293 587.3,648.3 l 0.8,3097.2 c 0.2,-5.3 0.3,-10.6 0.4,-15.9 l -0.5,-1956.4 -0.5,-2047 -0.3,-937.5 c -0.1,-176.7 -65.1,-337.2 -170.3,-454.3 -106.4,-118.3 -253.9,-192.2 -416.9,-193.5 l -9.2,-0.2 -7.6,-0.1 c -1.4,0 -2.9,0 -4.3,0 m -554.4,2024.7 c -9.3,0 -18.6,0 -27.8,0.2 l 0.1,455.9 c 2.5,-105.5 28.2,-204.5 71.7,-291.2 v -164.5 l -29.4,-0.4 c -4.8,0 -9.8,0 -14.6,0 m 1164.1,3931.5 c 0,0.7 0,1.3 0,1.9 0,-0.6 0,-1.2 0,-1.9 v 0 m 0,2.2 c 0,1.7 0,3.5 0,5.3 0,-1.8 0,-3.6 0,-5.3"
         style="fill:#401c96;fill-opacity:1;fill-rule:nonzero;stroke:none"
         id="path158" />
      <path
         d="m 12282,22141.9 c 0,1.4 0,2.8 0,4.1 v 116.8 -120.9"
         style="fill:#9999c7;fill-opacity:1;fill-rule:nonzero;stroke:none"
         id="path160" />
      <path
         d="m 11091.1,22508 v 0 c 0,0.1 0,0.1 0,0.1 v -0.1"
         style="fill:#9999c7;fill-opacity:1;fill-rule:nonzero;stroke:none"
         id="path162" />
      <path
         d="m 12130.6,22947.6 c -32.5,39.1 -69.4,73.7 -109.8,103 40.4,-29.2 77.3,-63.8 109.8,-102.9 v -0.1"
         style="fill:#99dbff;fill-opacity:1;fill-rule:nonzero;stroke:none"
         id="path164" />
      <path
         d="m 12279.1,22582.9 c -12.9,140 -66.9,266.4 -148.5,364.7 v 0.1 c 81.7,-98.3 135.7,-224.7 148.5,-364.8"
         style="fill:#9999c7;fill-opacity:1;fill-rule:nonzero;stroke:none"
         id="path166" />
      <path
         d="m 11091.1,22128.1 v 379.9 0.1 c 0.5,355.2 263.1,645.1 587.6,647.7 h 16.5 c 1.4,0.1 2.9,0.1 4.4,0.1 118.7,0 229.1,-38.7 321.2,-105.3 40.4,-29.3 77.3,-63.9 109.8,-103 81.6,-98.3 135.6,-224.7 148.5,-364.7 1.7,-19.1 2.7,-38.4 2.9,-57.9 -0.1,3.6 -0.2,7.1 -0.5,10.7 v -369.5 c -13.3,340.2 -268.5,610.1 -581.9,610.1 -1.5,0 -3,0 -4.4,0 l -16.5,-0.4 c -324.5,-2.2 -587.2,-292.6 -587.6,-647.8 m 1190.9,17.9 c -0.1,1.5 -0.1,2.9 -0.1,4.3 l 0.1,367.2 v 0 -254.7 -116.8 m 0,373.4 c 0,0.1 0,0.2 0,0.3 0,-0.1 0,-0.2 0,-0.3"
         style="fill:#bda9db;fill-opacity:1;fill-rule:nonzero;stroke:none"
         id="path168" />
      <path
         d="m 12281.9,22150.3 c -0.1,5.3 -0.2,10.6 -0.4,15.9 v 369.5 c 0.3,-3.6 0.4,-7.1 0.5,-10.7 0,-1.8 0,-3.6 0,-5.3 0,-0.1 0,-0.2 0,-0.3 0,-0.6 0,-1.2 0,-1.9 l -0.1,-367.2"
         style="fill:#b3a4d5;fill-opacity:1;fill-rule:nonzero;stroke:none"
         id="path170" />
      <path
         d="m 11089.6,17287.9 c -3.6,0.1 -7.3,0.1 -10.9,0.2 l 10.9,0.1 v -0.3"
         style="fill:#0198d4;fill-opacity:1;fill-rule:nonzero;stroke:none"
         id="path172" />
      <path
         d="m 11089.8,17287.9 c -0.1,0 -0.1,0 -0.2,0 v 0.3 0 l 0.4,1298 h 0.1 l -0.3,-1298.3 m 72.5,1462.3 c -0.1,0.2 -0.3,0.5 -0.4,0.7 l 0.9,3668.8 h 0.4 l -0.9,-3669.5"
         style="fill:#401c96;fill-opacity:1;fill-rule:nonzero;stroke:none"
         id="path174" />
      <path
         d="m 11078.7,17288.1 c -1124.04,22.8 -2026.03,1023.4 -2026.03,2262.5 l 0.43,573.4 c 0,65.5 2.58,130.4 7.54,194.6 8.91,34.3 18.55,68.3 28.87,101.9 C 9270,19382.7 10093.7,18600.4 11090,18586.2 l -0.4,-1298 v 0 l -10.9,-0.1"
         style="fill:#a91492;fill-opacity:1;fill-rule:nonzero;stroke:none"
         id="path176" />
      <path
         d="m 11117.8,17287.7 c -9.3,0 -18.7,0.1 -28,0.2 l 0.3,1298.3 c 9.2,-0.2 18.5,-0.2 27.8,-0.2 4.8,0 9.8,0 14.6,0 l 29.4,0.4 v 164.5 c 0.1,-0.2 0.3,-0.5 0.4,-0.7 l -0.4,-1462 -29.4,-0.4 c -4.9,-0.1 -9.8,-0.1 -14.7,-0.1"
         style="fill:#2d148b;fill-opacity:1;fill-rule:nonzero;stroke:none"
         id="path178" />
      <path
         d="m 8980.54,19547.6 c 0,1 0,2 0,3 v 0 c 0,-1 0,-2 0,-3 m 522.54,2090.5 c 113.43,141.3 242.44,267.2 384.03,374.6 -141.59,-107.4 -270.59,-233.4 -384.03,-374.6 m 384.95,375.3 c 0.05,0 0.13,0.1 0.19,0.1 -0.11,-0.1 -0.09,0 -0.19,-0.1"
         style="fill:#9af0ff;fill-opacity:1;fill-rule:nonzero;stroke:none"
         id="path180" />
      <path
         d="m 11090.9,21987 0.1,432.7 h 0.1 V 21987 h -0.2"
         style="fill:#bda9db;fill-opacity:1;fill-rule:nonzero;stroke:none"
         id="path182" />
      <path
         d="m 8980.98,19529.8 c -0.38,6 -0.43,11.9 -0.44,17.8 0,1 0,2 0,3 l 0.44,573.4 c 0,579.2 197.24,1109.5 522.1,1514.1 113.44,141.2 242.44,267.2 384.03,374.6 0.33,0.2 0.59,0.4 0.92,0.7 0.1,0.1 0.08,0 0.19,0.1 334.08,253 738.18,402.5 1173.38,405.8 l 29.4,0.4 -0.1,-432.7 -29.3,-0.5 c -916.4,-6.9 -1694.68,-662.1 -1972.09,-1566 -3.76,21.7 -7.25,43.4 -10.45,65.3 -7.88,-55 -14.07,-110.8 -18.42,-167.2 -51.88,-199.5 -79.66,-410 -79.66,-627.3 v -161.5"
         style="fill:#faa4d9;fill-opacity:1;fill-rule:nonzero;stroke:none"
         id="path184" />
      <path
         d="m 9060.64,20318.6 c 4.35,56.4 10.54,112.2 18.42,167.2 3.2,-21.9 6.69,-43.6 10.45,-65.3 -10.32,-33.6 -19.96,-67.6 -28.87,-101.9"
         style="fill:#dda1d3;fill-opacity:1;fill-rule:nonzero;stroke:none"
         id="path186" />
      <path
         d="m 11699.3,23004.6 c -1,0 -2,0 -3,-0.1 l -16.6,-0.1 c -241,-1.9 -437.1,-224.6 -437.2,-496.5 l -1.4,-5308 c -0.1,-140.2 53.3,-273.7 146.5,-366.2 78.7,-78.1 179.7,-121 284.7,-121 1.1,0 2.1,0 3.1,0.1 l 16.8,0.1 c 240.8,1.9 436.9,224.7 436.9,496.5 l 1.5,5308 c 0.1,140.2 -53.4,273.7 -146.5,366.2 -78.7,78.1 -179.8,121 -284.8,121 z m -27.1,-6594.8 c -185.4,0 -362.1,74.1 -498,208.9 -150.1,149 -236.1,360.8 -236.1,581.3 l 1.5,5308 c 0.1,437.6 331,796.1 737.6,799.3 l 16.6,0.2 c 1.8,0 3.6,0 5.4,0 185.7,0 362.4,-74.1 498.3,-208.9 150,-149 236.1,-360.8 236,-581.3 l -1.4,-5308 c -0.1,-437.5 -331,-796.1 -737.6,-799.3 l -16.8,-0.2 c -1.9,0 -3.7,0 -5.5,0"
         style="fill:#000072;fill-opacity:1;fill-rule:nonzero;stroke:none"
         id="path188" />
      <path
         d="M 10939.5,22262.8 C 9932.49,22184.7 9132.46,21252.3 9132.17,20124 l -0.17,-573.4 c -0.17,-598.9 230.54,-1171.5 632.98,-1570.9 325.02,-322.5 737.82,-510.6 1173.22,-537.1 z m 105.4,-5126.4 c -554.9,0 -1084.61,222.7 -1493.3,628.3 -459.34,455.9 -722.7,1106.9 -722.53,1786 l 0.17,573.4 c 0.37,1339.5 1001.2,2437.2 2231.06,2446.9 l 182.2,1.3 -1.5,-5434.3 -179.7,-1.5 c -5.5,0 -11,-0.1 -16.4,-0.1"
         style="fill:#000072;fill-opacity:1;fill-rule:nonzero;stroke:none"
         id="path190" />
      <path
         d="m 28306.6,16561.4 16.7,-0.1 c 324.3,-2.6 587.1,283.4 587,638.7 l -1.5,5308 c -0.1,355.2 -263.1,645.3 -587.3,647.9 l -16.7,0.1 c -324.3,2.6 -587.1,-283.4 -587,-638.7 l 1.5,-5307.9 c 0.1,-355.3 263,-645.4 587.3,-648"
         style="fill:#5b28a5;fill-opacity:1;fill-rule:nonzero;stroke:none"
         id="path192" />
      <path
         d="m 28327.8,16561.2 c -1.5,0 -2.9,0 -4.4,0 l -7.5,0.2 7.4,-0.1 c 1.4,0 2.9,0 4.3,0 92,0 178.9,23.2 256.2,64.6 v -0.1 c -77.2,-41.4 -164.1,-64.6 -256,-64.6"
         style="fill:#0198d4;fill-opacity:1;fill-rule:nonzero;stroke:none"
         id="path194" />
      <path
         d="m 28583.8,16625.8 v 0.1 c 61.3,32.8 116.4,77 163.2,130.1 v -0.1 c -46.8,-53.1 -102,-97.3 -163.2,-130.1"
         style="fill:#000072;fill-opacity:1;fill-rule:nonzero;stroke:none"
         id="path196" />
      <path
         d="m 28747,16755.9 v 0.1 c 27.6,31.3 52.3,65.7 73.6,102.7 -21.3,-37 -46,-71.5 -73.6,-102.8"
         style="fill:#000072;fill-opacity:1;fill-rule:nonzero;stroke:none"
         id="path198" />
      <path
         d="m 28909.9,18586.1 -0.2,453.8 c 0,0.1 0,0.1 0,0.2 l 0.2,-453.9 v -0.1"
         style="fill:#0072d4;fill-opacity:1;fill-rule:nonzero;stroke:none"
         id="path200" />
      <path
         d="m 28327.6,16561.3 c -1.4,0 -2.9,0 -4.3,0 l -7.4,0.1 -9.3,0.2 c -324.2,2.6 -587.3,292.5 -587.3,647.8 l -1.2,4940.9 c 0.1,5.3 0.2,10.6 0.4,15.9 l 0.8,-3097.2 c 0,-355.3 263.1,-645.7 587.3,-648.3 h 16.8 c 1.5,0 3,0 4.5,0 219.8,0 410.8,132.8 509.8,329.5 l 0.4,-1462 29.4,-0.4 c 5,-0.1 9.8,-0.1 14.7,-0.1 9.3,0 18.7,0.1 28,0.2 v -88 c 0,-125.6 -32.8,-242.6 -89.6,-341.2 -21.3,-37 -46,-71.4 -73.6,-102.7 -46.8,-53.1 -101.9,-97.3 -163.2,-130.1 -77.3,-41.4 -164.2,-64.6 -256.2,-64.6 m 554.5,2024.7 c -4.8,0 -9.8,0 -14.6,0 l -29.4,0.4 v 164.5 c 43.2,86.1 68.8,184.3 71.6,289 l 0.2,-453.8 c -9.3,-0.1 -18.5,-0.1 -27.8,-0.1 M 27718,22517.5 v 0 c 0,0.6 0,1.2 0,1.8 0,-0.6 0,-1.2 0,-1.8 m 0,2.2 c 0,1.8 0,3.5 0,5.3 0,-1.8 0,-3.5 0,-5.3"
         style="fill:#401c96;fill-opacity:1;fill-rule:nonzero;stroke:none"
         id="path202" />
      <path
         d="m 28908.9,22134.9 c 0,0.2 0,0.4 0,0.6 v 66.4 0 -67"
         style="fill:#99dbff;fill-opacity:1;fill-rule:nonzero;stroke:none"
         id="path204" />
      <path
         d="m 28908.9,22201.9 v 0 l -0.1,127.5 v 0 l 0.1,-127.5"
         style="fill:#d6f1ff;fill-opacity:1;fill-rule:nonzero;stroke:none"
         id="path206" />
      <path
         d="m 28908.8,22329.4 v 0 178.6 c 0,104.6 -22.9,203.5 -63.3,291.1 40.5,-87.6 63.3,-186.5 63.4,-291.1 v -88.3 h -0.1 v -90.3"
         style="fill:#9999c7;fill-opacity:1;fill-rule:nonzero;stroke:none"
         id="path208" />
      <path
         d="m 28908.9,22135.5 c -4.1,351.9 -265.3,638.2 -587.6,640.4 l -16.5,0.4 c -1.4,0 -2.9,0 -4.4,0 -313.4,0 -568.6,-269.9 -581.9,-610.1 l -0.1,369.5 c -0.2,-3.6 -0.3,-7.1 -0.4,-10.7 3.3,350.2 262.6,630.9 582.4,630.9 1.5,0 2.9,0 4.4,-0.1 h 16.5 c 229,-1.8 427.2,-146.7 524.2,-356.7 40.4,-87.6 63.3,-186.5 63.3,-291.1 v -178.6 l 0.1,-127.5 v -66.4 m -1190.9,6.4 v 375.6 0 l 0.1,-367.2 c -0.1,-2.8 -0.1,-5.6 -0.1,-8.4 m 0,377.4 c 0,0.1 0,0.3 0,0.4 0,-0.1 0,-0.2 0,-0.4"
         style="fill:#bda9db;fill-opacity:1;fill-rule:nonzero;stroke:none"
         id="path210" />
      <path
         d="m 27718.1,22150.3 -0.1,367.2 c 0,0.6 0,1.2 0,1.8 0,0.2 0,0.3 0,0.4 0,1.8 0,3.5 0,5.3 0.1,3.6 0.2,7.1 0.4,10.7 l 0.1,-369.5 c -0.2,-5.3 -0.3,-10.6 -0.4,-15.9"
         style="fill:#b3a4d5;fill-opacity:1;fill-rule:nonzero;stroke:none"
         id="path212" />
      <path
         d="m 28939.8,17287.9 -29.6,0.3 -1.4,5131.5 29.6,-0.2 c 1148.8,-9 2080.4,-1036.7 2080.8,-2295.4 l 0.1,-573.5 c 0.4,-1258.7 -930.7,-2271.7 -2079.5,-2262.7"
         style="fill:#f21ca0;fill-opacity:1;fill-rule:nonzero;stroke:none"
         id="path214" />
      <path
         d="m 28910.2,17287.9 v 188.7 l -0.1,120.1 0.1,-308.5 11.1,-0.1 c -3.7,-0.1 -7.4,-0.1 -11.1,-0.2"
         style="fill:#000072;fill-opacity:1;fill-rule:nonzero;stroke:none"
         id="path216" />
      <path
         d="m 28910.2,17287.9 v 188.7 -188.7 m -72.5,1462.3 -0.9,3669.5 h 0.4 l 0.9,-3668.8 c -0.1,-0.2 -0.2,-0.4 -0.4,-0.7"
         style="fill:#401c96;fill-opacity:1;fill-rule:nonzero;stroke:none"
         id="path218" />
      <path
         d="m 28909.9,18328.4 v 0 257.8 -257.8"
         style="fill:#0050b6;fill-opacity:1;fill-rule:nonzero;stroke:none"
         id="path220" />
      <path
         d="m 28910,18040.8 v 0 l -0.1,287.6 v 0 l 0.1,-287.6"
         style="fill:#000072;fill-opacity:1;fill-rule:nonzero;stroke:none"
         id="path222" />
      <path
         d="m 28910.1,17888.9 v 0 l -0.1,151.9 v 0 l 0.1,-151.9"
         style="fill:#000072;fill-opacity:1;fill-rule:nonzero;stroke:none"
         id="path224" />
      <path
         d="m 28910.2,17476.6 -0.1,412.3 v 0 -292.2 l 0.1,-120.1"
         style="fill:#000072;fill-opacity:1;fill-rule:nonzero;stroke:none"
         id="path226" />
      <path
         d="m 28882.2,17287.7 c -4.9,0 -9.7,0 -14.7,0.1 l -29.4,0.4 -0.4,1462 c 0.2,0.3 0.3,0.5 0.4,0.7 v -164.5 l 29.4,-0.4 c 4.8,0 9.8,0 14.6,0 9.3,0 18.5,0 27.8,0.1 v -257.7 l 0.1,-287.6 0.1,-151.9 0.1,-412.3 v -188.7 c -9.3,-0.1 -18.7,-0.2 -28,-0.2"
         style="fill:#2d148b;fill-opacity:1;fill-rule:nonzero;stroke:none"
         id="path228" />
      <path
         d="m 28921.3,17288.1 -11.1,0.1 -0.1,308.5 v 292.2 l -0.1,151.9 -0.1,287.6 v 257.8 c 996.2,14.2 1820.1,796.5 2000.6,1834.3 10.3,-33.6 20,-67.6 28.9,-101.9 4.9,-64.2 7.5,-129.1 7.5,-194.6 l 0.4,-573.4 c 0,-1239.1 -902,-2239.7 -2026,-2262.5"
         style="fill:#a91492;fill-opacity:1;fill-rule:nonzero;stroke:none"
         id="path230" />
      <path
         d="m 31019.3,19534.8 c 0,5.3 0,10.5 0,15.8 l -0.1,296.6 0.3,-296.6 c 0,-5.3 0,-10.6 -0.2,-15.8 m -77.1,1205.4 c -179.1,702 -656.1,1270 -1271.8,1528.5 615.8,-258.3 1092.8,-826.3 1271.8,-1528.5"
         style="fill:#9af0ff;fill-opacity:1;fill-rule:nonzero;stroke:none"
         id="path232" />
      <path
         d="m 31019,19529.8 v 161.5 c 0,217.3 -27.8,427.8 -79.6,627.3 -4.4,56.4 -10.6,112.2 -18.5,167.2 -3.2,-21.9 -6.6,-43.6 -10.4,-65.3 -277.4,903.9 -1055.7,1559.1 -1972.1,1566 l -29.5,0.5 v 432.7 l 29.5,-0.4 c 257.5,-1.9 504.3,-55.1 732,-150.6 615.7,-258.5 1092.7,-826.5 1271.8,-1528.5 50.1,-196.2 76.8,-402.9 76.8,-616.2 l 0.2,-276.8 0.1,-296.6 c 0,-5.3 0,-10.5 0,-15.8 -0.1,-1.7 -0.2,-3.3 -0.3,-5"
         style="fill:#faa4d9;fill-opacity:1;fill-rule:nonzero;stroke:none"
         id="path234" />
      <path
         d="m 30939.4,20318.6 c -8.9,34.3 -18.6,68.3 -28.9,101.9 3.8,21.7 7.2,43.4 10.4,65.3 7.9,-55 14.1,-110.8 18.5,-167.2"
         style="fill:#dda1d3;fill-opacity:1;fill-rule:nonzero;stroke:none"
         id="path236" />
      <path
         d="m 28307.7,16712.9 16.7,-0.1 c 1,-0.1 2,-0.1 3,-0.1 105.2,0 206.2,42.9 284.8,121 93.2,92.5 146.6,226 146.6,366.2 l -1.5,5308 c -0.1,271.9 -196.1,494.6 -437,496.5 l -16.8,0.1 c -1,0.1 -2.1,0.1 -3.1,0.1 -104.9,0 -205.9,-42.9 -284.6,-121 -93.2,-92.5 -146.6,-226 -146.5,-366.2 l 1.4,-5308 c 0.1,-271.8 196.1,-494.6 437,-496.5 z m 19.9,-303.1 c -1.8,0 -3.7,0 -5.5,0 l -16.7,0.2 c -406.6,3.2 -737.5,361.8 -737.6,799.3 l -1.5,5308 c 0,220.5 86,432.3 236.1,581.3 137.2,136.2 315,209.8 503.6,208.9 l 16.8,-0.2 c 406.4,-3.2 737.3,-361.7 737.4,-799.3 l 1.5,-5308 c 0.1,-220.5 -86,-432.3 -236.1,-581.3 -135.8,-134.8 -312.5,-208.9 -498,-208.9"
         style="fill:#000072;fill-opacity:1;fill-rule:nonzero;stroke:none"
         id="path238" />
      <path
         d="m 29060.3,22262.8 1.3,-4820.2 c 435.5,26.5 848.3,214.6 1173.3,537.1 402.4,399.4 633.1,972 633,1570.9 l -0.2,573.4 c -0.3,1128.2 -800.4,2060.6 -1807.4,2138.8 z m -105.4,-5126.4 c -5.4,0 -10.8,0.1 -16.3,0.1 l -179.8,1.5 -1.5,5434.3 182.2,-1.3 c 1229.9,-9.7 2230.8,-1107.4 2231.1,-2446.9 l 0.2,-573.4 c 0.2,-679.1 -263.2,-1330.1 -722.5,-1786 -408.7,-405.5 -938.4,-628.3 -1493.4,-628.3"
         style="fill:#000072;fill-opacity:1;fill-rule:nonzero;stroke:none"
         id="path240" />
      <path
         d="m 23161.8,13272.7 -1122.3,-85.4 c -217.8,-16.6 -407.7,146.5 -424.2,364.2 l -56.1,736.3 c -16.5,217.7 146.5,407.6 364.2,424.2 l 1122.3,85.4 c 217.8,16.5 407.7,-146.5 424.2,-364.2 l 56.1,-736.3 c 16.5,-217.7 -146.5,-407.6 -364.2,-424.2"
         style="fill:#00a4ff;fill-opacity:1;fill-rule:nonzero;stroke:none"
         id="path242" />
      <path
         d="m 21871.8,13210.8 c -86.3,32.1 -159,93.6 -205,173.3 46,-79.6 118.7,-141.2 205,-173.3"
         style="fill:#525696;fill-opacity:1;fill-rule:nonzero;stroke:none"
         id="path244" />
      <path
         d="m 21561.8,14253.2 -2.7,34.7 2.7,-34.7 v 0 m -0.3,117.9 c 4,30 11.4,59 21.9,86.5 v -0.2 c -10.4,-27.5 -17.8,-56.4 -21.9,-86.3"
         style="fill:#767ba5;fill-opacity:1;fill-rule:nonzero;stroke:none"
         id="path246" />
      <path
         d="m 21587.8,13912.8 -26,340.4 v 0 l 5.6,-72.1 20.4,-268.3"
         style="fill:#525696;fill-opacity:1;fill-rule:nonzero;stroke:none"
         id="path248" />
      <path
         d="m 22008.6,13186.3 c -47.9,0 -94,8.6 -136.8,24.5 -86.3,32.1 -159,93.7 -205,173.3 -28.6,49.7 -46.8,106.3 -51.4,167.3 l -27.6,361.4 -20.4,268.3 10.3,-134.6 c 8.2,25.1 18.9,49.2 31.7,71.9 l 2.1,-26.5 c 15.6,-207.3 188.7,-365.1 393.2,-365.1 10.2,0 20.5,0.4 30.9,1.2 l 1122.5,85.2 c 136.7,10.1 251.5,88.8 314,199.5 l 35.7,-468.1 c -48.2,-147.8 -181.6,-259.5 -346.2,-271.9 l -1122.1,-85.2 c -10.4,-0.8 -20.7,-1.2 -30.9,-1.2 m 1516.2,437.7 c 2.5,23.8 3,48.1 1.2,72.8 v 0 c 1.8,-24.7 1.4,-49 -1.2,-72.8"
         style="fill:#0072d4;fill-opacity:1;fill-rule:nonzero;stroke:none"
         id="path250" />
      <path
         d="m 21559.1,14287.9 v 0 c -2.1,28.3 -1.2,56.2 2.4,83.2 -3.6,-27 -4.4,-54.8 -2.4,-83.2 v 0 m 24.3,169.3 v 0.2 c 52.6,139.2 182,242.7 340.1,254.6 l 623.8,47.4 -623.9,-47.4 c -158.1,-12.1 -287.5,-115.6 -340,-254.8 m 1812.7,177.7 c -2.5,3.4 -5,6.8 -7.6,10.1 2.6,-3.3 5.1,-6.7 7.6,-10.1 v 0"
         style="fill:#dddfe4;fill-opacity:1;fill-rule:nonzero;stroke:none"
         id="path252" />
      <path
         d="m 23447.2,14538.7 c -12.6,34.7 -29.9,67 -51.1,96.2 v 0 c 21.2,-29.2 38.6,-61.5 51.2,-96.2 h -0.1"
         style="fill:#c8cadb;fill-opacity:1;fill-rule:nonzero;stroke:none"
         id="path254" />
      <path
         d="m 23517.7,13806.2 -19.9,261.5 c 0,-0.1 0,-0.2 0,-0.2 l -4,52 h 0.1 l 23.8,-313.3 v 0"
         style="fill:#faa4d9;fill-opacity:1;fill-rule:nonzero;stroke:none"
         id="path256" />
      <path
         d="m 23493.8,14119.5 -9,118.2 h 0.2 l 8.9,-118.2 h -0.1"
         style="fill:#fddbf0;fill-opacity:1;fill-rule:nonzero;stroke:none"
         id="path258" />
      <path
         d="m 23507.8,13544 v 0.4 c 6.2,19 11,38.7 14.2,58.8 -3.2,-20.2 -8,-40 -14.2,-59.2 m 16.4,175.6 -0.3,4.6 -6.2,82 v 0 l 6.5,-86.6 m -39.4,518.1 -14.9,195.5 c -2.8,36.9 -10.6,72.3 -22.7,105.5 h 0.1 c 12.1,-33.1 20,-68.4 22.8,-105.4 l 14.9,-195.6 h -0.2"
         style="fill:#9999c7;fill-opacity:1;fill-rule:nonzero;stroke:none"
         id="path260" />
      <path
         d="m 23507.8,13544.4 v 0.2 c 8.3,25.5 14,52 17,79.4 -0.7,-7 -1.7,-14 -2.8,-20.8 -3.2,-20.1 -8,-39.8 -14.2,-58.8 m 18.2,152.4 -2.1,27.4 0.3,-4.6 1.8,-22.8 m -53.9,315.9 -2,26.4 c -16,207.3 -189.1,365.2 -393.6,365.2 -10.2,0 -20.5,-0.4 -30.9,-1.2 l -1122.1,-85.3 c -136.4,-10.4 -251.4,-88.7 -314.1,-199.4 l -26,338.8 c 52.5,139.2 181.9,242.7 340,254.8 l 623.9,47.4 498.3,37.9 c 10.2,0.8 20.3,1.1 30.3,1.1 125.8,0 239.7,-59.4 312.6,-153.4 2.6,-3.3 5.1,-6.7 7.6,-10.1 21.2,-29.2 38.5,-61.5 51.1,-96.2 12.1,-33.2 19.9,-68.6 22.7,-105.5 l 14.9,-195.5 9,-118.2 4,-52 c -7.2,-19 -15.8,-37.3 -25.7,-54.8"
         style="fill:#99dbff;fill-opacity:1;fill-rule:nonzero;stroke:none"
         id="path262" />
      <path
         d="m 23517.7,13806.2 -19.9,261.3 c 0,0 0,0.1 0,0.2 l 19.9,-261.5 v 0"
         style="fill:#dda1d3;fill-opacity:1;fill-rule:nonzero;stroke:none"
         id="path264" />
      <path
         d="m 23523.9,13724.2 -6.2,82 v 0 l 6.2,-82"
         style="fill:#9999c7;fill-opacity:1;fill-rule:nonzero;stroke:none"
         id="path266" />
      <path
         d="m 21561.8,14253.2 -2.7,34.7 c -2,28.4 -1.2,56.2 2.4,83.2 4.1,29.9 11.5,58.8 21.9,86.3 v -0.2 c -19.8,-52.4 -28.7,-109.9 -24.2,-169.4 l 2.7,-34.6 h -0.1"
         style="fill:#c8cadb;fill-opacity:1;fill-rule:nonzero;stroke:none"
         id="path268" />
      <path
         d="m 21567.4,14181.1 -5.6,72.1 h 0.1 l 5.5,-72.1"
         style="fill:#babbd5;fill-opacity:1;fill-rule:nonzero;stroke:none"
         id="path270" />
      <path
         d="m 23507.8,13544.6 -35.7,468.1 c 9.9,17.5 18.5,35.8 25.7,54.8 l 19.9,-261.3 6.2,-82 2.1,-27.4 c 1.8,-24.7 1.3,-49 -1.2,-72.8 -3,-27.4 -8.7,-53.9 -17,-79.4 m -1930.1,501.9 -10.3,134.6 -5.5,72.1 -2.7,34.6 c -4.5,59.5 4.4,117 24.2,169.4 l 26,-338.8 c -12.8,-22.7 -23.5,-46.8 -31.7,-71.9"
         style="fill:#99c7ee;fill-opacity:1;fill-rule:nonzero;stroke:none"
         id="path272" />
      <path
         d="m 23076.1,14647.1 c -6.2,0 -12.5,-0.3 -18.9,-0.8 l -1122.2,-85.4 c -65,-4.9 -124.2,-34.9 -166.6,-84.3 -42.4,-49.4 -63.1,-112.4 -58.1,-177.4 l 56,-736.2 c 4.9,-65 34.9,-124.1 84.3,-166.6 49.4,-42.4 112.3,-62.9 177.4,-58.1 l 1122.3,85.4 c 64.9,5 124.1,34.9 166.5,84.3 42.4,49.5 63.1,112.4 58.1,177.4 l -56,736.3 c -4.9,64.9 -34.9,124.1 -84.3,166.5 -44.6,38.3 -100.3,58.9 -158.5,58.9 z m -1067.5,-1612.5 c -130.5,0 -255.3,46.1 -355.3,132 -110.8,95.1 -178,227.8 -189.1,373.4 l -56,736.2 c -11.1,145.7 35.2,286.9 130.4,397.8 95.1,110.8 227.7,177.9 373.4,189 l 1122.2,85.4 c 145.8,10.9 286.9,-35.2 397.7,-130.4 110.9,-95.1 178,-227.7 189.1,-373.4 l 56,-736.2 c 11.1,-145.7 -35.2,-286.9 -130.3,-397.7 -95.2,-110.8 -227.8,-178 -373.4,-189 l -1122.3,-85.4 c -14.2,-1.1 -28.4,-1.7 -42.4,-1.7"
         style="fill:#000072;fill-opacity:1;fill-rule:nonzero;stroke:none"
         id="path274" />
      <path
         d="m 20867.5,16073.3 c 141.4,-410.7 38.4,-800.2 -220.8,-1055.1 -94.3,-93.5 -209.4,-169 -341.6,-220.9 -355.5,-140 -756.9,-57.8 -1055.8,180.7 -131.4,104.7 -236.8,227.8 -316.9,362 -250.3,416.5 -258.2,934.7 -57.7,1305.8 92,170.4 317.7,211.6 465.6,86.9 434.6,-366.7 945.2,-583.9 1527.2,-659.4"
         style="fill:#000072;fill-opacity:1;fill-rule:nonzero;stroke:none"
         id="path276" />
      <path
         d="m 21530,17843.3 c 0,-258.1 -393.2,-467.3 -878.2,-467.3 -485.1,0 -878.3,209.2 -878.3,467.3 0,258.1 408.3,321.5 893.3,321.5 485,0 863.2,-63.4 863.2,-321.5"
         style="fill:#000072;fill-opacity:1;fill-rule:nonzero;stroke:none"
         id="path278" />
      <path
         d="m 20646.7,15018.2 c -94.3,-93.5 -209.4,-169 -341.6,-220.9 -355.5,-140 -756.9,-57.8 -1055.8,180.7 -131.4,104.7 -236.8,227.8 -316.9,362 573.3,514.4 1406.5,373.5 1714.3,-321.8"
         style="fill:#d94452;fill-opacity:1;fill-rule:nonzero;stroke:none"
         id="path280" />
      <path
         d="m 19142.6,16653.6 c -9.7,0 -19.5,-0.9 -29.2,-2.7 -26.6,-5.1 -75.6,-21.8 -105.4,-77 -181.4,-335.7 -159.6,-800.1 54.2,-1155.9 73.4,-123.1 168.1,-231.1 281.5,-321.6 266.5,-212.7 613.6,-273.3 905.9,-158.2 111.4,43.8 209,106.8 290.5,187.5 211,207.6 286.6,505.7 210,811.5 -573.5,91 -1080.3,319.3 -1507.5,679.7 -28.4,23.9 -63.7,36.7 -100,36.7 z m 800.3,-2075.5 c -276.5,0 -556.5,96.7 -788.1,281.5 -142,113.2 -260.6,248.7 -352.5,402.8 -270.9,450.9 -294.9,1022.3 -60.8,1455.4 65.2,120.8 180.2,205 315.4,230.6 136.2,26 275,-10.6 381.1,-100 406.2,-342.6 893.7,-552.9 1449,-624.9 l 93.2,-12.1 30.6,-88.8 c 154.3,-448.5 57.9,-901.8 -257.9,-1212.4 -110.4,-109.5 -242.6,-195 -392.4,-253.8 -133.5,-52.7 -275.1,-78.3 -417.6,-78.3"
         style="fill:#000072;fill-opacity:1;fill-rule:nonzero;stroke:none"
         id="path282" />
      <path
         d="m 20866,16224.9 c 229,-12 456.8,-5.5 676.8,41.4 219.6,46.2 430.2,136 612.9,273.3 28.7,21.6 69.5,15.9 91.1,-12.7 20,-26.5 16.5,-63.5 -6.7,-86.1 -178.5,-172 -401.2,-301.9 -638.7,-382.7 -237.8,-82 -487.2,-119.2 -732.4,-136.1 l -0.5,-0.1 c -83.6,-5.7 -156.1,57.3 -161.9,141 -5.8,83.6 57.4,156 141,161.8 5.9,0.4 12.6,0.4 18.4,0.2"
         style="fill:#000072;fill-opacity:1;fill-rule:nonzero;stroke:none"
         id="path284" />
      <path
         d="m 20506.4,15921.1 -238.9,186.3 c 376.4,482.8 330.9,1348.1 330.4,1356.8 l 302.4,17.5 c 2.4,-40.1 51.9,-988.8 -393.9,-1560.6"
         style="fill:#000072;fill-opacity:1;fill-rule:nonzero;stroke:none"
         id="path286" />
      <path
         d="m 18645.3,19301.4 c -105.8,-4.6 -202.7,3.3 -296.3,15.9 -93.9,12.2 -183,31.2 -270,53.2 -173.3,44.9 -336.3,104.6 -489.8,177.9 -76.9,36.3 -151.4,76.1 -224.2,118.4 -73.2,41.5 -145.5,84.4 -216.7,129 -142.4,88.8 -280.1,184.5 -411.9,288.6 -263.6,208 -502.9,450.7 -745.5,688.6 -121.4,118.8 -237.4,245.3 -341.4,388.9 -104.2,143.3 -200.6,297.6 -273.2,485.9 201.7,-4.7 379.6,-43.2 549.6,-92.8 170.3,-49.3 328.6,-115.7 481.5,-189.7 305.9,-147.9 615.3,-290.9 900.2,-468.6 142.5,-88.9 279.1,-186.1 410.9,-290.1 66,-51.9 130.9,-105.4 194.7,-160.3 64.4,-54.1 127,-110.8 187.2,-170.9 120.9,-119.6 232.2,-252.8 333.2,-400.7 50,-74.5 98.1,-151.9 141.4,-236.1 43.5,-83.9 83.7,-172.4 115.1,-273.4 8.1,-26 -6.4,-53.6 -32.4,-61.7 -4,-1.2 -8.4,-1.9 -12.4,-2.1"
         style="fill:#000072;fill-opacity:1;fill-rule:nonzero;stroke:none"
         id="path288" />
      <path
         d="m 18282.3,19604.7 c 5.3,-118.5 0.6,-239.9 -15.9,-362.6 -119.7,-900.6 -797.3,-1554.5 -1513.3,-1459.2 -716,95.4 -1198.8,902.9 -1079.2,1804.2 77.2,579.8 385.4,1057.4 786.8,1298.3 l 1821.6,-1280.7"
         style="fill:#000072;fill-opacity:1;fill-rule:nonzero;stroke:none"
         id="path290" />
      <path
         d="m 17717,19203.8 c -32.3,-242.9 -214.9,-419 -407.9,-393.4 -193,25.6 -323.3,243.3 -291.1,486.2 32.3,242.9 214.9,419 407.9,393.4 193.1,-25.7 323.4,-243.3 291.1,-486.2"
         style="fill:#ffffff;fill-opacity:1;fill-rule:nonzero;stroke:none"
         id="path292" />
      <path
         d="m 17717,19203.8 c 7.7,104.1 -11.4,210 -61.4,298.6 -48.7,88.5 -134,157.9 -232.2,168.6 -98,12.1 -195.1,-35.7 -260.5,-109.2 -67,-73.5 -105.2,-170.2 -119,-268.6 -12.2,-98.8 2.4,-201.5 47.4,-289 44.5,-87 124.8,-156.3 220.8,-171.3 95.9,-14.8 196,27.6 266.5,99.7 71.4,71.9 118.1,168.9 136.3,271.5 z m 2,-0.3 c -10.4,-104.1 -48.4,-208.5 -119.7,-290.3 -35.5,-40.5 -79.1,-75.2 -129.4,-98.4 -50.2,-23.5 -107.7,-33 -163.8,-26.8 -56,6.6 -110.5,29 -154.8,63.9 -44.5,34.6 -79.9,79.2 -106,128 -52.6,98.1 -67.2,212.1 -53.2,320.2 14.9,108.2 61.4,213 137.2,293 74.3,79.9 186.9,132.6 299.2,115.9 112.3,-16.4 203.2,-98.8 249.4,-194.8 47.6,-97 57.7,-207.6 39.1,-310.4 l 2,-0.3"
         style="fill:#000072;fill-opacity:1;fill-rule:nonzero;stroke:none"
         id="path294" />
      <path
         d="m 21959.9,19365.2 c 31.5,101 71.7,189.5 115.2,273.4 43.3,84.2 91.3,161.6 141.4,236.1 101,147.9 212.3,281.1 333.1,400.7 60.2,60.1 122.8,116.8 187.2,170.9 63.9,54.9 128.7,108.4 194.7,160.3 131.8,104 268.5,201.2 411,290.1 284.9,177.7 594.2,320.7 900.2,468.6 152.8,74 311.1,140.4 481.4,189.7 170.1,49.6 347.9,88.1 549.6,92.8 -72.5,-188.3 -168.9,-342.6 -273.2,-485.9 -104,-143.6 -219.9,-270.1 -341.4,-388.9 -242.6,-237.9 -481.8,-480.6 -745.4,-688.6 -131.8,-104.1 -269.5,-199.8 -412,-288.6 -71.1,-44.6 -143.4,-87.5 -216.7,-129 -72.7,-42.3 -147.2,-82.1 -224.2,-118.4 -153.4,-73.3 -316.4,-133 -489.7,-177.9 -87.1,-22 -176.1,-41 -270,-53.2 -93.7,-12.6 -190.6,-20.5 -296.3,-15.9 -27.2,1.1 -48.2,24.1 -47,51.3 0.1,4.2 1,8.6 2.1,12.5"
         style="fill:#000072;fill-opacity:1;fill-rule:nonzero;stroke:none"
         id="path296" />
      <path
         d="m 22367.7,19604.7 c -5.3,-118.5 -0.5,-239.9 16,-362.6 119.7,-900.6 797.2,-1554.5 1513.3,-1459.2 716,95.4 1198.8,902.9 1079.1,1804.2 -77.1,579.8 -385.4,1057.4 -786.8,1298.3 l -1821.6,-1280.7"
         style="fill:#000072;fill-opacity:1;fill-rule:nonzero;stroke:none"
         id="path298" />
      <path
         d="m 22933.1,19203.8 c 32.2,-242.9 214.9,-419 407.9,-393.4 193,25.6 323.3,243.3 291,486.2 -32.2,242.9 -214.9,419 -407.9,393.4 -193,-25.7 -323.3,-243.3 -291,-486.2"
         style="fill:#ffffff;fill-opacity:1;fill-rule:nonzero;stroke:none"
         id="path300" />
      <path
         d="m 22933.1,19203.8 c -18.6,102.8 -8.5,213.4 39.1,310.4 46.2,96 137,178.4 249.4,194.8 112.3,16.7 224.9,-36 299.2,-115.9 75.8,-80 122.2,-184.8 137.1,-293 14.1,-108.1 -0.5,-222.1 -53.1,-320.2 -26.1,-48.8 -61.5,-93.4 -106.1,-128 -44.2,-34.9 -98.7,-57.3 -154.7,-63.9 -56.2,-6.2 -113.7,3.3 -163.8,26.8 -50.4,23.2 -93.9,57.9 -129.5,98.4 -71.2,81.8 -109.2,186.2 -119.7,290.3 z m 2,0.3 c 18.3,-102.6 64.9,-199.6 136.4,-271.5 70.4,-72.1 170.5,-114.5 266.5,-99.7 95.9,15 176.2,84.3 220.8,171.3 45,87.5 59.5,190.2 47.3,289 -13.8,98.4 -52,195.1 -118.9,268.6 -65.4,73.5 -162.5,121.3 -260.5,109.2 -98.2,-10.7 -183.6,-80.1 -232.2,-168.6 -50,-88.6 -69.1,-194.5 -61.4,-298.6 l 2,0.3"
         style="fill:#000072;fill-opacity:1;fill-rule:nonzero;stroke:none"
         id="path302" />
      <path
         d="m 20329.9,17774 c -120.4,0 -214.2,34.2 -217.4,82.5 -3.5,54 107.3,105.2 247.7,114.4 14.6,1 29,1.4 43,1.4 120.4,0 214.3,-34.1 217.4,-82.5 3.6,-53.9 -107.3,-105.1 -247.6,-114.3 -14.7,-1 -29.1,-1.5 -43.1,-1.5"
         style="fill:#4d4d9d;fill-opacity:1;fill-rule:nonzero;stroke:none"
         id="path304" />
      <path
         d="m 23473.2,9993.8 c 15.1,9.5 32,19.4 51,30.3 -16.4,-10.4 -33.3,-20.4 -51,-30.3"
         style="fill:#9999c7;fill-opacity:1;fill-rule:nonzero;stroke:none"
         id="path306" />
      <path
         d="m 26308.5,28277.7 c -341.7,0 -676.6,-105 -968.5,-303.7 l -1270.4,-864.6 c -1289.3,495.6 -2655.1,746.7 -4061.9,746.7 -1426.4,0 -2809.7,-257.9 -4114,-766.8 l -1220.2,846.8 c -295.2,204.7 -634.6,312.9 -981.7,312.9 -275.5,0 -542.1,-66.4 -792.4,-197.4 -628.4,-328.9 -1018.8,-999.5 -1018.8,-1750.1 V 24342 c -283,-313.6 -546.2,-645.4 -783.5,-988.1 -177.9,-138.2 -309.2,-337.4 -369.5,-560 -570.1,-86.9 -1094.6,-384.6 -1489.28,-848.6 -424.82,-499.4 -658.91,-1146.1 -659.1,-1821.1 l -0.15,-573.4 c -0.19,-745.4 290.11,-1461 796.46,-1963.5 374.83,-372 848.97,-608.8 1352.47,-679 48.6,-177.9 141.2,-339.2 270.2,-467.1 182.8,-181.4 422.1,-281.3 673.7,-281.3 h 5.5 l 18.5,0.1 c 6.5,0 13.1,0.1 19.6,0.3 409.1,-1093.9 1105.8,-2031.6 2074,-2790.8 -479.6,-1174.6 -594.1,-2380 -330.2,-3498 256.1,-1085.5 854.1,-2032.5 1683.8,-2666.6 616.2,-470.9 1312.4,-731.9 2013.4,-754.7 33.1,-1.1 66,-1.6 98.8,-1.6 670.7,0 1315.5,225.4 1870.3,652.8 h 1496.6 c 554.8,-427.4 1199.6,-652.8 1870.3,-652.8 32.8,0 65.7,0.5 98.7,1.6 701.1,22.8 1397.3,283.8 2013.5,754.7 829.6,634.1 1427.6,1581.1 1683.8,2666.6 248.9,1054.8 160.3,2194.3 -255.4,3307.3 68.1,48.5 133.3,96.8 196.9,145.6 52.3,40.2 107.2,83.9 166.4,132.4 l 1870.8,133.1 c 786.9,56 1407,667.1 1474.3,1453.2 l 176,2053.4 c 260.3,118.4 497.5,283 706.8,490.8 506.4,502.5 796.7,1218.1 796.5,1963.5 l -0.2,573.4 c -0.2,671.5 -232.2,1315.8 -653.2,1814.2 -393.5,465.8 -918.1,765.9 -1488.7,854.5 -4.3,7.3 -8.5,14.4 -12.7,21.4 -58.2,200.1 -173.1,379 -327.8,510.7 -247,359.4 -522.1,706.7 -818.9,1034.1 v 1971.4 c 0,747 -387.7,1416.1 -1011.6,1746.2 -248.5,131.5 -524.8,201 -799.2,201 z m 0,-250 c 232.1,0 465.1,-57 682.3,-171.9 541.8,-286.7 878.5,-871.2 878.5,-1525.3 v -2068.6 c 322.3,-348.5 617.6,-718.6 882.8,-1107.6 135.7,-106.2 236.8,-260.3 281.7,-438.9 30.9,-51.3 61.2,-103 91,-154.9 1143.6,-112.1 2045.5,-1164.9 2045.8,-2436.4 l 0.2,-573.4 c 0.1,-679.1 -263.2,-1330.1 -722.6,-1786 -224.4,-222.7 -485.3,-389.8 -766.8,-495.6 l -188.9,-2204.7 c -56.8,-662.7 -579.6,-1177.9 -1243,-1225.1 l -1950.8,-138.9 c -72.2,-60.2 -145.5,-119.8 -221.1,-177.8 -112.8,-86.7 -229.5,-170 -349.2,-250.8 458.5,-1124.5 569,-2274 316.8,-3342.8 -242.9,-1029.5 -808.4,-1926.4 -1592.3,-2525.4 -574.6,-439.1 -1221.2,-682.4 -1869.8,-703.5 -30.2,-1 -60.5,-1.5 -90.6,-1.5 -643.5,0 -1257,224.9 -1783.3,652.8 h -1670.6 c -526.3,-427.9 -1139.9,-652.8 -1783.3,-652.8 -30.2,0 -60.3,0.5 -90.6,1.5 -648.6,21.1 -1295.2,264.4 -1869.8,703.5 -783.9,599 -1349.4,1495.9 -1592.3,2525.4 -265.7,1125.6 -128.8,2340.8 393.2,3522 -32.1,23.8 -64.3,47.4 -95.8,71.6 -1019.1,782.9 -1732.6,1771.1 -2118,2915.9 -60,-17.5 -122.6,-28 -187.5,-28.5 l -17.1,-0.1 c -1.8,0 -3.7,0 -5.5,0 -185.2,0 -361.8,74 -497.7,208.8 -136.2,135.1 -218.9,322.2 -233.1,520.3 -516.9,26 -1006.36,245.5 -1389.47,625.7 -459.37,455.9 -722.73,1106.9 -722.56,1786 l 0.15,573.4 c 0.36,1277.6 910.99,2334.4 2062.18,2437.9 21.5,37.3 42.6,74.7 64.6,111.7 41.7,210.2 160.8,390.2 323.3,504.1 256.8,374.2 541.4,730.7 851.3,1067.3 v 2056.4 c 0,657.3 339,1243 884.7,1528.6 215.8,112.9 446.6,168.9 676.5,168.9 291.8,0 582.3,-90.2 839.1,-268.3 l 1330.4,-923.2 c 1269.4,513 2672,798.6 4146.4,798.6 1454,0 2838.2,-277.8 4093.6,-777.5 l 1379.4,938.7 c 254.1,173 540.4,260.4 827.8,260.4"
         style="fill:#ffffff;fill-opacity:1;fill-rule:nonzero;stroke:none"
         id="path308" />
    </g>
  </g>
</svg>
